<svg xmlns="http://www.w3.org/2000/svg" id="Layer_1" data-name="Layer 1" viewBox="40 40 215 210"><defs><style>.cls-1{fill:#f3c851}.cls-2{fill:#84cbcc}.cls-3{fill:#fff}.cls-4{fill:#1864ab}</style></defs><title>Machine Learning for Kids logo</title><polygon points="148.79 249.07 58.76 197.34 58.76 93.45 148.79 145.18 148.79 249.07" class="cls-1"/><polygon points="238.86 197.03 148.79 249.07 148.79 145.18 238.86 93.14 238.86 197.03" class="cls-2"/><path d="M117.83,148.11l18.55,10.66v7.71l-6.47-3.72v46.39l6.47,3.72v7.71L116.23,209v-7.71l6.33,3.63V158.53l-18.41,44.18-1.6-.92L84.28,136.54v46.38l5.9,3.39V194l-19-10.93v-7.71l6.5,3.74V132.74L71.17,129v-7.71l18.37,10.56,14.11,50.43Z" class="cls-3"/><path d="M189.2,150.58V197l17.6-10.17V167.65l6.65-3.84v26.86l-39.26,22.68v-7.71l6.9-4V155.27l-6.9,4v-7.71l21.91-12.65v7.71Z" class="cls-3"/><polygon points="148.79 41.29 238.76 93.24 148.79 145.18 58.81 93.24 148.79 41.29" class="cls-4"/><path d="M147.89,118.94a13.12,13.12,0,0,0,10.19-4.19l.47,0q.82.11,1.68.18c.54,0,1.11.08,1.69.08,5,0,11.1-2,12.17-5.2.52-1.59,1.83-2.4,4.81-3a15,15,0,0,0,2.15-.64l.65-.23c5.77-2,9.54-5,10.62-8.64a8.4,8.4,0,0,0-1.87-7.74,1.26,1.26,0,0,1-.08-1.34,5.28,5.28,0,0,0-.44-5.31c-2.18-3.7-7.37-6.6-12.25-6.89-.33-2.63-3.55-4-6.67-5.35l-.36-.15a27,27,0,0,0-10.78-2.42,21.34,21.34,0,0,0-2.66.16,15.34,15.34,0,0,1-1.82.11,31.11,31.11,0,0,1-5-.54,30.77,30.77,0,0,0-5.17-.56,15.9,15.9,0,0,0-1.71.09c-9.26,1-15.59,3.88-19.35,8.81-.69.91-1.45,1.44-3.49,1.7-5,.65-8.22,2.64-9,5.61a10.83,10.83,0,0,0-.07,3.59c0,.39.07.79.09,1.2-4.36,1.73-6.39,3.27-6.75,5.12-.31,1.62.67,3.39,3.18,5.74a.49.49,0,0,1,.1.51,5.46,5.46,0,0,0,.28,5.1c1.62,2.66,5.63,4.46,11,5,1.24,4.13,6.31,6.68,13.36,6.68a29.75,29.75,0,0,0,3.36-.19h.3a5.81,5.81,0,0,1,2.29.53A20.54,20.54,0,0,0,147.89,118.94Zm-10.77-6a16.61,16.61,0,0,0-3.57.44,4.8,4.8,0,0,1-1.06.11c-3,0-7.21-1.89-7.74-3.11a1.65,1.65,0,0,1,.61-1.85,52.88,52.88,0,0,1,5.14-3.06l2-1.13,1.15.64c1.14.63,2.23,1.23,3.18,1.88.21.14.3.46.26.93a3.07,3.07,0,0,0,.86,2.37,7.1,7.1,0,0,0,5.21,1.8c3.47,0,6.13-1.58,6.18-3.67a2.79,2.79,0,0,0-.85-2,7.43,7.43,0,0,0-5.21-1.73l-.61,0h-.49a6.61,6.61,0,0,1-4.19-1.47,15.9,15.9,0,0,0-1.49-.92l26.67-15.2,2,1.15c2.62,1.48,5.33,3,7.9,4.51a1.66,1.66,0,0,1,0,.48l0,.2a2.94,2.94,0,0,0,.76,2.33,7,7,0,0,0,5.16,1.9h.16a7.63,7.63,0,0,0,5.37-1.87,2.67,2.67,0,0,0,.8-2c-.12-2.13-2.8-3.61-6.52-3.61h-.9a4.11,4.11,0,0,1-1.71-.21c-2.5-1.34-4.94-2.73-7.52-4.21l-1.84-1,2.09-1.08c2.42-1.25,4.71-2.44,7.12-3.6a4.79,4.79,0,0,1,2.07-.47,5.28,5.28,0,0,1,2.69.77c2.46,1.49,5,3.27,5.34,5.23a3.67,3.67,0,0,1-1.08,3c-.49.59-.14,1.51.48,2.06a5.85,5.85,0,0,1,2.21,5.57c-.52,2.74-3.15,5.2-7,6.58a57.66,57.66,0,0,1-7.77,2.18c-1.78.38-2.82.91-2.87,2.49-.09,2.38-3.7,4.39-7.89,4.39h0l4-2.27a.56.56,0,0,0,0-1l-11.09-6.31.07,0a7.13,7.13,0,0,1,4.64-1.68,10,10,0,0,1,1.06,0c.24,0,.47,0,.71,0,2.71,0,5-1.56,5.16-3.49a2.75,2.75,0,0,0-.74-2,6.94,6.94,0,0,0-4.8-1.92l-.59,0c-2,0-4.47.55-5.46,1.76a1.7,1.7,0,0,0-.39,1.44c.32,1.54-1,2.41-3.29,3.65l-.95.53c-.45.25-.87.52-1.34.83l-.72.46a.57.57,0,0,0-.27.49.59.59,0,0,0,.29.48l11.08,6.3-.33.17a24.32,24.32,0,0,0-2.35,1.4,16.4,16.4,0,0,0-3.22,2.73,6.86,6.86,0,0,1-5.56,2.4,13.89,13.89,0,0,1-3.61-.53l-.4-.11a4.59,4.59,0,0,1-1.14-.38A10.06,10.06,0,0,0,137.12,112.91Zm5.12-4.88a4.55,4.55,0,0,1,1-.1,3.73,3.73,0,0,1,1.12.14,3.1,3.1,0,0,1,0,.46.92.92,0,0,0,0,.16l-.64-.06a7.54,7.54,0,0,1-1.51-.21A.66.66,0,0,1,142.24,108ZM123.86,80.8a6.84,6.84,0,0,1,4.81,1.68,1.49,1.49,0,0,1,.48,1.16,2.79,2.79,0,0,0,.77,2.16,7.11,7.11,0,0,0,5.15,1.89h.16a7.47,7.47,0,0,0,5.27-1.78,2.82,2.82,0,0,0,.88-2c0-2.1-2.67-3.63-6.24-3.63h-.37a15.36,15.36,0,0,1-6.44-2.37l.11-.19c2.05-3.69,10.19-7,17.09-7,.32,0,.63,0,.94,0a17.65,17.65,0,0,1,3.51.63,19.6,19.6,0,0,0,3.54.67l.85,0c1,0,2-.1,3-.19a27.46,27.46,0,0,1,2.85-.19c.25,0,.5,0,.75,0A25,25,0,0,1,171.61,75c.75.42,1.2.88,1.21,1.25s-.42.64-.68.8c-3.76,2.25-7.74,4.5-11.58,6.67-1.43.8-2.85,1.61-4.29,2.43l-2.55-1.45,5.77-3.29a.55.55,0,0,0,.29-.49.56.56,0,0,0-.29-.49l-1-.58c-.69-.39-1.32-.75-2-1.14-1.61-.87-2.24-1.32-2-2.25a1.91,1.91,0,0,0-.35-1.73c-.91-1.22-3.21-2.07-5.6-2.07h-.18a7.43,7.43,0,0,0-5.15,1.9,2.68,2.68,0,0,0-.79,2c.11,2,2.63,3.55,5.62,3.55.24,0,.49,0,.73,0s.56,0,.82,0a4.93,4.93,0,0,1,3,.91L147,84.13a.57.57,0,0,0,0,1l5.74,3.26-9.58,5.46-9-5.11a.72.72,0,0,0-.28-.07.64.64,0,0,0-.28.07l-2,1.15c-1.61.93-3.13,1.82-4.75,2.64a7.13,7.13,0,0,1-2.84.57h-.25c-3.89,0-6.51,1.41-6.66,3.59a2.69,2.69,0,0,0,.79,2,7.51,7.51,0,0,0,5.42,1.85h0a7.08,7.08,0,0,0,5.06-1.8,3.2,3.2,0,0,0,1-2.37,1.92,1.92,0,0,1,.87-1.3,22.77,22.77,0,0,1,2.58-1.55l1.15-.62,1.23.69c1.43.81,2.79,1.56,4.07,2.38a.55.55,0,0,1-.19.29c-4.92,2.87-10.66,6.19-16.46,9.39a6.84,6.84,0,0,1-3.33.89,6.76,6.76,0,0,1-3.58-1c-1.51-.92-3.25-2.14-3.41-3.46a2.75,2.75,0,0,1,1.06-2.17c.71-.7-.26-1.74-.63-2.13a10.18,10.18,0,0,0-1.09-1,6.36,6.36,0,0,1-1.28-1.25,2.18,2.18,0,0,1-.35-2c.42-1,2-1.86,4.37-2.37.79-.17,1.6-.31,2.3-.43l.8-.13a.59.59,0,0,0,.39-.28.56.56,0,0,0,0-.49c-.21-.52-.45-1-.7-1.55a10,10,0,0,1-1.11-3.14,2.36,2.36,0,0,1,.64-1.78c1.14-1.35,3.64-2.31,6.52-2.51C123.46,80.8,123.66,80.8,123.86,80.8ZM122.29,97c0-.1,0-.25.07-.36v-.05l.42,0h.68a3.75,3.75,0,0,1,.88.08c0,.11,0,.3,0,.46v.14l-.64,0A6.39,6.39,0,0,1,122.29,97Zm37.47.07a2.77,2.77,0,0,1,.09-.47v0h.92a2,2,0,0,1,.75.08,1.85,1.85,0,0,1,.09.48v0H161C160.52,97.16,160,97.15,159.76,97.11ZM179.27,94h-1l0-.06c0-.1-.06-.24-.07-.34a6.66,6.66,0,0,1,1.46-.21l.63-.06v.14c0,.15,0,.34,0,.45A4.18,4.18,0,0,1,179.27,94ZM134.22,83.84a4.51,4.51,0,0,1,1.2-.15,4.34,4.34,0,0,1,.89.08,2.39,2.39,0,0,1,.11.5l0,.09-.58,0a6.47,6.47,0,0,1-1.6-.14A.53.53,0,0,1,134.22,83.84Zm13.88-7.73c.26,0,.56,0,.87,0l.34,0a1.49,1.49,0,0,1,0,.53,7.29,7.29,0,0,1-1.32.1h-.62c.11-.43.16-.6.3-.67A1.07,1.07,0,0,1,148.1,76.11Z" class="cls-3"/><path d="M157.84,114.16c-4.42,5.4-12.9,5-18.67,2.14a6.19,6.19,0,0,0-2.91-.57c-8.43.92-15.09-1.69-16.22-6.46-8.58-.72-13.22-4.59-11.24-9.34a1.06,1.06,0,0,0-.23-1.15c-5-4.62-4-7.06,3.77-10.06,0-1.76-.45-3.43-.06-5,.68-2.76,3.76-4.58,8.48-5.18,2.18-.28,3.08-.88,3.87-1.92,3.63-4.77,9.83-7.62,19-8.6,4.84-.52,8.81,1.5,13.69.9a25.31,25.31,0,0,1,13.15,2.22c3.27,1.4,6.79,2.81,6.7,5.52,7.52.16,15.17,6.79,12.74,11.4a1.81,1.81,0,0,0,.13,2c4.65,5.88,1.24,12.21-8.48,15.49a21.53,21.53,0,0,1-2.72.85c-2.89.57-4.6,1.39-5.25,3.36-1,3.06-7.88,5.26-13.27,4.74ZM152.58,84.7l3.7,2.1c5.47-3.12,10.93-6.13,16.15-9.27,1.53-.92,1.12-2.1-.54-3A25.39,25.39,0,0,0,161,71.06c-2.42-.15-5,.5-7.42.34s-4.67-1.19-7.07-1.3c-7.47-.33-16.3,3.27-18.54,7.31-.11.2-.29.42-.22.6.38.94,5.27,2.86,7.11,2.81,3.32-.08,5.93,1.26,6,3.07s-2.51,3.28-5.73,3.23-5.54-1.56-5.37-3.42-3.06-3.69-6.49-3.45c-4.47.31-7.93,2.35-7.68,4.92.15,1.61,1.19,3.2,1.85,4.84-.81.14-2,.32-3.12.56-4.28.93-5.92,2.81-4.38,5.27a20.89,20.89,0,0,0,2.44,2.31c.38.41.93,1,.64,1.34-2.68,2.64-.61,4.65,2.46,6.52a7.21,7.21,0,0,0,7.47.17c5.59-3.08,11-6.24,16.47-9.4.42-.24.65-1,.34-1.18-1.78-1.14-3.75-2.19-5.73-3.32a43.34,43.34,0,0,0-4.07,2.36,2.42,2.42,0,0,0-1.1,1.78c.07,2-2.21,3.56-5.45,3.58s-5.77-1.46-5.65-3.28,2.72-3.12,6.34-3.06a7.55,7.55,0,0,0,3.1-.64c2.3-1.16,4.41-2.45,6.77-3.79l9.26,5.26,10.73-6.11-6.61-3.75L153.65,81a6,6,0,0,0-4.93-1.5c-3.07.25-5.65-1.25-5.75-3s2.36-3.22,5.39-3.28,6.08,1.4,5.58,3.07c-.44,1.48.85,2.15,2.33,3,.92.5,1.82,1,2.94,1.66Zm7.7,27.43c5.2.74,10.28-1.63,10.39-4.79,0-1.1.6-1.58,2.42-2a61.3,61.3,0,0,0,7.85-2.2c7.5-2.68,9.77-8.91,5-13.12-.39-.34-.69-.94-.43-1.26,3.16-3.77-.14-6.49-4.39-9.06a5.52,5.52,0,0,0-5.31-.33c-3.41,1.65-6.68,3.39-10.15,5.17,3.69,2.09,6.92,4,10.29,5.77a6.35,6.35,0,0,0,2.5.27c3.52-.1,6.22,1.19,6.32,3.07S182.2,97,179,96.94s-5.6-1.61-5.37-3.6c0-.4.2-1-.18-1.19-3.37-2-6.85-3.92-10.26-5.86l-28,15.93c2.74.91,3.51,3.07,7.48,2.86,3.49-.18,6.12,1.27,6.07,3.16s-2.5,3.15-5.67,3.13c-3.33,0-5.6-1.54-5.44-3.56a1.54,1.54,0,0,0-.51-1.45c-1.37-.94-3-1.75-4.65-2.7-2.67,1.52-5.33,2.84-7.51,4.37a2.21,2.21,0,0,0-.8,2.54c.77,1.77,6.55,4,9.44,3.34,3.87-.88,6.44-.39,8.92,1.24a6.52,6.52,0,0,0,1.7.56c4.35,1.19,7.7.43,9.75-2a17.24,17.24,0,0,1,3.12-2.63c1-.7,2.2-1.28,3.5-2l-11.95-6.79c.79-.5,1.39-.91,2-1.28,2.32-1.34,5-2.4,4.52-4.79-.32-1.55,2.89-2.65,5.85-2.5s5.13,1.62,5,3.33-2.4,3.21-5.25,2.94c-3.66-.35-4.92,1-6.89,2.27l11.88,6.76ZM146.6,77.43c1.47-.1,2.74,0,3.05-.26s.17-1,.21-1.54a7.8,7.8,0,0,0-2.45,0C146.86,76,146.92,76.61,146.6,77.43ZM181,92.66a11.91,11.91,0,0,0-3.12.47c-.41.25,0,.92,0,1.41a9.93,9.93,0,0,0,2.7-.15C181,94.21,180.8,93.5,181,92.66ZM137.15,85c-.25-.8-.13-1.54-.61-1.69a5.1,5.1,0,0,0-2.63.07c-.37.14-.37,1.13.06,1.34A13,13,0,0,0,137.15,85ZM125,97.92c-.16-.84,0-1.57-.42-1.74a10.12,10.12,0,0,0-2.71-.12c0,.49-.4,1.17,0,1.43A12.46,12.46,0,0,0,125,97.92ZM145,109.33c-.13-.84.1-1.57-.36-1.76a4.94,4.94,0,0,0-2.62-.06c-.39.11-.53,1.1-.13,1.34A12.1,12.1,0,0,0,145,109.33ZM162.3,97.8c-.2-.77-.05-1.41-.52-1.65a8.35,8.35,0,0,0-2.39-.12c0,.52-.39,1.13,0,1.52S160.91,97.7,162.3,97.8Z" class="cls-3"/></svg>