<?xml version="1.0" encoding="UTF-8"?><svg width="440" height="106" id="Layer_2" xmlns="http://www.w3.org/2000/svg" xmlns:xlink="http://www.w3.org/1999/xlink" viewBox="0 0 438.83 105.89"><defs><mask id="mask" x="244.02" y="7.81" width="67.22" height="44.43" maskUnits="userSpaceOnUse"/><mask id="mask-1" x="390.93" y="44.55" width="46.24" height="26.04" maskUnits="userSpaceOnUse"/></defs><g id="Layer_1-2"><g><rect width="438.83" height="105.89" fill="#fff"/><g><path d="M20.84,48.97s78.63,37.98,102.52,33.88c49.42-8.49,34.85-29.62,88.62-36.49,40.83-5.21,53.86,41.7,86.01,41.7s90.35-42.57,99.04-61.68" fill="none" fill-rule="evenodd" stroke="#cedff2" stroke-dasharray="0 0 4.51 9.02" stroke-linecap="round" stroke-miterlimit="10" stroke-width="4.51"/><g><path d="M58.86,73.21c18.28-2.34,35.54,3.5,35.52,14.2,0,4.68-8.26,5.95-20.13,8.2-14.26,2.71-31.45-1.67-36.6-8.24-8.17-10.43,3.33-11.88,21.21-14.17Z" fill="#575e75" fill-rule="evenodd"/><path d="M88.44,77.7s-13.74,6.51-24.58,2.7c-10.84-3.81-15.52-5.74-15.52-5.74,0,0,14.71-1.96,20.77-1.96,12.11,0,19.33,5.01,19.33,5.01Z" fill="rgba(34,31,31,.1)" fill-rule="evenodd"/><path d="M76.66,62.71c15.21,1.3,16.15,6.86,8.8,11.95-7.05,4.88-34.49,2.16-42.97-4.75-8.48-6.91,19.29-8.48,34.17-7.2Z" fill="#666f86" fill-rule="evenodd"/><path d="M79.53,63.1s-2.07,7.25-11.99,6.58c-9.92-.67-17.72-6-17.72-6,0,0,9.96-1.43,17.99-1.38,8.03,.05,11.72,.79,11.72,.79Z" fill="rgba(34,31,31,.1)" fill-rule="evenodd"/><path d="M93.13,82.91c.8,1.88-2.82,5.09-4.42,4.45-1.6-.64-4.37,5.3-10.62,5.18-6.25-.12-17.86,3.73-23.94,.87-6.08-2.85-18.42-7.55-18.94-10.5-.52-2.95,0,0,0,0,0,0,2.15,12.73,29.12,13.51,7.27,.21,12.05-1.32,16.49-2.04,12.02-1.95,15.81-4.39,12.31-11.47Z" fill="rgba(34,31,31,.1)" fill-rule="evenodd"/><path d="M65.47,46.09c14.92,1.3,19.37,13.86,12.16,18.94-6.91,4.87-19.32,4.36-27.63-2.53-8.32-6.88,.88-17.68,15.47-16.41Z" fill="#b2bea5" fill-rule="evenodd"/><path d="M77.11,50.1c-2.3,3.65-23.57,1.21-24.14-1.89-.39-2.11,0,0,0,0,0,0,6.55-3.01,13.04-2.02,6.49,1,10.32,2.79,12.03,4.83" fill="rgba(34,31,31,.1)" fill-rule="evenodd"/><path d="M65.59,37.6c10.92,3.58,21.52-.3,17.53,7.54-2.99,5.89-28.26,4.7-36.65-1.73-8.39-6.43,5.05-10.42,19.11-5.8Z" fill="#666f86" fill-rule="evenodd"/><path d="M75.07,39.51c-1.39,1.21-10.66,2.85-14.08,1.56-3.42-1.29-7.55-2.71-8.2-5.46,0,0,8.02,.24,11.14,1.72,3.12,1.48,11.14,2.18,11.14,2.18Z" fill="rgba(34,31,31,.1)" fill-rule="evenodd"/><path d="M65.33,26.77c9.39,.81,15.75,7.67,11.22,10.82-4.35,3.03-14.91,3.73-20.14-.55-5.23-4.29-.26-11.06,8.92-10.27Z" fill="#cfe1d5" fill-rule="evenodd"/><path d="M86.96,65.28c1.08,.74-3.08,10.01-8.53,10.25-5.44,.24-16.08-3-18.68-1.86-2.6,1.14-10.65-1.14-11.21-3.12-.56-1.98-6.26-4.35-6.13-4.53,1.18-1.7-.74,.74-.74,.74,0,0-4.46,2.83,13.37,8.77,18.9,4.83,31.19,.52,34.16-4.32,2.23-4.45-2.23-5.93-2.23-5.93Z" fill="rgba(34,31,31,.1)" fill-rule="evenodd"/><path d="M79.31,53.3c1.68,2.05-1.22,10.76-14.42,9.43-13.19-1.33-17.35-9.01-15.9-11.28,0,0,1.45-2.27,0,0,0,0-2.93,3.25-1.92,6.88,1.01,3.62,8.35,9.73,17.77,9.91,9.42,.19,15.74-3.58,16.15-8.9,.27-3.44-1.68-6.03-1.68-6.03Z" fill="rgba(34,31,31,.1)" fill-rule="evenodd"/><path d="M76.07,56.38c.81,.05,.57,1.63-.45,1.47-1.03-.16-.44-1.52,.45-1.47Z" fill="rgba(34,31,31,.1)" fill-rule="evenodd"/><path d="M73.49,53.88c.46,.76-.75,1.55-1.26,.53-.52-1.02,.75-1.37,1.26-.53Z" fill="rgba(34,31,31,.1)" fill-rule="evenodd"/><path d="M60.12,55.36c.46,.76-.75,1.55-1.26,.53-.52-1.02,.75-1.37,1.26-.53Z" fill="rgba(34,31,31,.1)" fill-rule="evenodd"/><path d="M75.78,53.49c.8,.4,1.04,1.4,.45,1.4s-1.23,.15-1.15-.7c.08-.85,.39-.85,.7-.7Z" fill="rgba(34,31,31,.1)" fill-rule="evenodd"/><path d="M65.68,34.12c.81,.05,.57,1.63-.45,1.47-1.03-.16-.44-1.52,.45-1.47Z" fill="#fff" fill-rule="evenodd"/><path d="M58.25,29.67c.81,.05,.57,1.63-.45,1.47-1.03-.16-.45-1.52,.45-1.47Z" fill="#fff" fill-rule="evenodd"/><path d="M70.52,31.62c.46,.76-.75,1.55-1.26,.53-.52-1.02,.75-1.37,1.26-.53Z" fill="#fff" fill-rule="evenodd"/><path d="M58.04,55c.76,.73,.89,1.86,.43,2.52-.5,.71-.62,.31-1.1-1.26-.4-1.31,.38-1.54,.67-1.26Z" fill="rgba(34,31,31,.1)" fill-rule="evenodd"/><path d="M83.92,41.39c-.35,.91-.95,.83-2.03,1.38-1.08,.55-.53,3.23-1.89,3.31-1.36,.08-11.46,1.73-13.01,.35-1.55-1.38-5.49-2.09-7.26-1.77-1.77,.31-8.4-.5-9.33-2.67-.92-2.17-7.37-2.28-6.08-4.1,0,0,1.29-1.81,0,0,0,0-2.03,2.46,2.74,5.7,4.78,3.24,14.62,5.61,21.73,5.35,7.11-.26,12.01-.86,13.82-3.18,1.81-2.32,1.31-4.37,1.31-4.37Z" fill="rgba(34,31,31,.1)" fill-rule="evenodd"/><path d="M77.46,33c.75,1.41-.18,3.63-2.87,4.61-2.69,.98-9.12-.9-11.39-.45-2.27,.45-9.01-4.5-8.2-6.01-1.61,1.58,0,0,0,0,0,0-3.52,5.65,7.17,8.32,7.69,1.92,15.08-1.42,15.69-3.22,.58-1.7-.41-3.26-.41-3.26Z" fill="rgba(34,31,31,.1)" fill-rule="evenodd"/><path d="M72.69,29.21s-3.19,2.37-8.34,1.88c-5.15-.49-7.09-3.09-7.09-3.09,0,0,2.53-1.62,7.42-1.24,4.89,.39,8.92,2.96,8.92,2.96" fill="rgba(34,31,31,.1)" fill-rule="evenodd"/><path d="M61.75,21c6.61-.73,13.87,0,13.29,5.49-.44,4.17-13.57,4.24-18.44,.17-4.86-4.07-1.59-4.92,5.15-5.66Z" fill="#666f86" fill-rule="evenodd"/><path d="M70.62,21.54s-3.85,2.59-7.42,2.14c-3.57-.45-4.46-2.14-4.46-2.14,0,0,4.02-.78,6.65-.78,2.62,0,5.23,.78,5.23,.78Z" fill="rgba(34,31,31,.1)" fill-rule="evenodd"/><path d="M63.32,16.4c4.81-.51,12.49,1.48,9.65,3.86-1.22,1.03-7.68,2.92-11.87,1.45-4.03-1.42-2.68-4.79,2.22-5.31Z" fill="#cfe1d5" fill-rule="evenodd"/><path d="M74.86,24.42c.17,1.56-1.12,2.78-2.56,2.75-1.44-.03-3.13-.63-3.78,0-.65,.63-.76,1.47-2.26,1.13-1.5-.34-4.08-2.26-6.42-2.16-2.34,.09-5.36-2.99-5.2-3.61,0,0,.16-.62,0,0,0,0-.51,.52-.32,1.07,.19,.55,1.51,4.25,8.73,5.62,7.22,1.37,10.89-.7,11.57-1.84,.68-1.14,.47-2.37,.25-2.95Z" fill="rgba(34,31,31,.1)" fill-rule="evenodd"/><path d="M69.13,16.91s-1.42,1.16-3.42,.83c-1.99-.33-4.01-1.27-4.01-1.27,0,0,2-.26,4.01-.1,2.01,.16,3.42,.55,3.42,.55Z" fill="rgba(34,31,31,.1)" fill-rule="evenodd"/><path d="M73.57,19.61c-1.03,.68-2.64,1.71-5.06,1.86-2.42,.16-5.36-.04-6.87-.45-1.93-.52-2.3-1.96-2.74-1.72-.94,1.55,2.27,3.24,6.85,2.89,5.82-.44,8.09-1.6,7.81-2.59Z" fill="rgba(34,31,31,.1)" fill-rule="evenodd"/><path d="M64.38,13.57c4.65-.6,7.99-.06,5.25,2.75-1.18,1.21-2.89,2.32-6.94,.58-3.9-1.67-3.04-2.72,1.7-3.33Z" fill="#b2bea5" fill-rule="evenodd"/><path d="M70.59,14.83c-.96,.95-2.61,2.55-4.63,2.09-2.02-.46-5.05-.75-5.53-1.17-.48-.42,0,0,0,0,0,0,2.52,2.05,5.82,2.05,2.96,0,4.59-2.44,4.34-2.97Z" fill="rgba(34,31,31,.1)" fill-rule="evenodd"/></g><g><path d="M348.65,98.68l-41.19-27.71s-.06-.06-.07-.1c0-.04,0-.08,.02-.12,.02-.04,.06-.06,.1-.08,.04-.01,.08,0,.12,.01l31.16,13.1,9.86,14.9Z" fill="#ae5aa2"/><path d="M348.77,98.54l41.48-17.63s.08-.04,.11-.08c.03-.03,.05-.08,.06-.12,.01-.04,.01-.09,0-.14,0-.04-.03-.09-.06-.12L350.84,14.01s-.09-.08-.15-.1c-.06-.02-.12-.01-.18,0-.06,.02-.11,.06-.14,.11-.03,.05-.05,.11-.05,.17l-1.96,84.07s.02,.09,.04,.14c.02,.04,.06,.08,.1,.1,.04,.03,.09,.04,.13,.05,.05,0,.1,0,.14-.02Z" fill="#a7509d"/><path d="M348.65,98.68l42-17.72-92.44-43.53c-.06-.03-.12-.04-.19-.03-.06,.01-.12,.04-.17,.09-.04,.05-.07,.11-.08,.17s.01,.13,.05,.18l50.81,60.84Z" fill="#b66aaa"/><path d="M378.36,75.17l-.5-57.29,4.61-.79,8.17,63.87-12.28-5.79Z" fill="#ae5aa2"/><path d="M382.48,17.09l8.7-.72-7.85,7.36-.85-6.65Z" fill="#b66aaa"/><path d="M362.17,88.34l-53.52-42.02" fill="none" stroke="#ae5aa2" stroke-linecap="round" stroke-miterlimit="10" stroke-width="1.14"/></g><g><path d="M153.02,15.72c5.16-1.64,10.69,1.22,12.33,6.39s-1.24,10.67-6.41,12.3-10.67-1.22-12.31-6.38c-1.64-5.17,1.22-10.68,6.39-12.31h0Zm.64,2.02c4.05-1.28,8.38,.96,9.66,5,1.28,4.05-.96,8.37-5.02,9.65s-8.38-.96-9.66-5c-1.28-4.05,.96-8.37,5.02-9.65h0Z" fill="#ce8b2a" fill-rule="evenodd"/><rect x="156.96" y="30.65" width="3.85" height="7.16" transform="translate(-2.92 49.57) rotate(-17.57)" fill="#ce8b2a"/><path d="M135.14,41.75l5.09-5.58c.34-.37,.93-.39,1.3-.05h0c.38,.33,.41,.93,.07,1.3l-5.1,5.58c-.34,.37-.93,.39-1.3,.05h0c-.37-.34-.41-.93-.05-1.3h0Z" fill="#faa91e" fill-rule="evenodd"/><path d="M136.92,42.52l4.25-4.63,2.85,2.59c.25,.23,.27,.63,.04,.9l-3.4,3.69c-.22,.27-.63,.28-.88,.04l-2.85-2.59Z" fill="#eb9c22" fill-rule="evenodd"/><polygon points="141.29 44.41 143.43 42.06 146.8 45.15 144.66 47.48 141.29 44.41" fill="#ce8b2a" fill-rule="evenodd"/><path d="M182.63,26.71l-7.37-1.63c-.49-.11-.99,.22-1.1,.7h0c-.11,.49,.2,.99,.7,1.09l7.37,1.63c.49,.11,.99-.22,1.1-.7h0c.12-.49-.2-.99-.7-1.09h0Z" fill="#faa91e" fill-rule="evenodd"/><path d="M181.62,28.37l-6.14-1.34-.83,3.76c-.09,.34,.13,.67,.48,.76l4.9,1.07c.34,.09,.67-.13,.76-.48l.83-3.76Z" fill="#eb9c22" fill-rule="evenodd"/><polygon points="179.13 32.42 176.03 31.73 175.05 36.2 178.15 36.88 179.13 32.42" fill="#ce8b2a" fill-rule="evenodd"/><path d="M159.12,34.97c15.86-5.02,32.78,3.74,37.79,19.58,5.01,15.82-3.78,32.73-19.64,37.75-15.86,5.02-32.78-3.74-37.79-19.57-5.02-15.84,3.77-32.75,19.63-37.77h0Z" fill="#eb9c22" fill-rule="evenodd"/><path d="M159.12,34.97c15.86-5.02,32.78,3.74,37.79,19.58,1.41,4.45,1.72,8.98,1.1,13.3-3.64,3.93-8.31,7.01-13.77,8.73-16.76,5.31-34.65-3.96-39.96-20.7-.88-2.79-1.36-5.63-1.46-8.43,3.67-5.74,9.3-10.27,16.29-12.49h0Z" fill="#faa91e" fill-rule="evenodd"/><path d="M160.53,39.43c13.39-4.24,27.66,3.17,31.9,16.54,4.23,13.35-3.18,27.63-16.57,31.87-13.39,4.24-27.66-3.17-31.89-16.52-4.23-13.37,3.17-27.65,16.56-31.89h0Z" fill="#fcbd4d" fill-rule="evenodd"/><path d="M160.53,39.43c13.39-4.24,27.66,3.17,31.9,16.54,1.84,5.82,1.47,11.82-.64,17.09-2.3,1.48-4.82,2.66-7.54,3.53-16.76,5.31-34.65-3.96-39.96-20.7-.05-.15-.09-.3-.13-.46,2.52-7.35,8.38-13.46,16.37-15.99h0Z" fill="#ffd998" fill-rule="evenodd"/><path d="M161.14,41.35c12.32-3.9,25.47,2.92,29.37,15.23,3.89,12.29-2.93,25.44-15.25,29.34-12.32,3.9-25.47-2.92-29.36-15.21-3.9-12.31,2.93-25.45,15.25-29.36h0Z" fill="#ffe2b2" fill-rule="evenodd"/><path d="M161.14,41.35c12.32-3.9,25.47,2.92,29.37,15.23,1.99,6.29,1.18,12.81-1.74,18.19-1.43,.71-2.95,1.32-4.52,1.82-15.8,5-32.6-2.94-38.92-17.89,1.72-7.92,7.53-14.72,15.81-17.35h0Z" fill="#fff3cc" fill-rule="evenodd"/><g><polygon points="151.69 49.03 154.85 51.93 155.62 51.1 152.45 48.2 151.69 49.03" fill="#c37929"/><polygon points="146.76 59.12 150.96 60.05 151.22 58.95 147.02 58.02 146.76 59.12" fill="#c37929"/><polygon points="162.85 84.26 163.95 84.5 164.87 80.31 163.77 80.07 162.85 84.26" fill="#c37929"/><rect x="147.29" y="68.56" width="4.3" height="1.13" transform="translate(-13.9 48.34) rotate(-17.57)" fill="#c37929"/><polygon points="153.01 78.84 153.85 79.6 156.75 76.42 155.91 75.67 153.01 78.84" fill="#c37929"/><polygon points="183.13 47.61 182.28 46.85 179.38 50.03 180.23 50.78 183.13 47.61" fill="#c37929"/><polygon points="184.92 67.5 189.12 68.43 189.37 67.33 185.17 66.4 184.92 67.5" fill="#c37929"/><polygon points="171.27 46.14 172.37 46.38 173.3 42.18 172.19 41.95 171.27 46.14" fill="#c37929"/><rect x="184.55" y="56.76" width="4.3" height="1.13" transform="translate(-8.59 59.04) rotate(-17.57)" fill="#c37929"/><rect x="161.62" y="42.48" width="1.13" height="4.29" transform="translate(-5.9 51.05) rotate(-17.57)" fill="#c37929"/><polygon points="180.52 75.35 183.68 78.25 184.46 77.42 181.28 74.52 180.52 75.35" fill="#c37929"/><rect x="173.4" y="79.68" width="1.13" height="4.29" transform="translate(-16.59 56.34) rotate(-17.57)" fill="#c37929"/></g><g><polygon points="183.13 47.61 182.28 46.85 179.38 50.03 180.23 50.78 183.13 47.61" fill="#ce8b2a"/><polygon points="151.69 49.03 154.85 51.93 155.62 51.1 152.45 48.2 151.69 49.03" fill="#ce8b2a"/><rect x="161.62" y="42.48" width="1.13" height="4.29" transform="translate(-5.9 51.05) rotate(-17.57)" fill="#ce8b2a"/><polygon points="146.76 59.12 150.96 60.05 151.22 58.95 147.02 58.02 146.76 59.12" fill="#ce8b2a"/><polygon points="171.27 46.14 172.37 46.38 173.3 42.18 172.19 41.95 171.27 46.14" fill="#ce8b2a"/><rect x="184.55" y="56.76" width="4.3" height="1.13" transform="translate(-8.59 59.04) rotate(-17.57)" fill="#ce8b2a"/><path d="M180.52,75.35l1.92,1.75c.42-.1,.86-.22,1.29-.34l-2.45-2.23-.76,.83Z" fill="#ce8b2a"/><polygon points="184.92 67.5 189.12 68.43 189.37 67.33 185.17 66.4 184.92 67.5" fill="#ce8b2a"/></g><path d="M155.29,31.62l5.03-1.59c.13-.04,.21-.2,.17-.33l-.28-.89-5.52,1.75,.28,.89c.04,.13,.18,.22,.32,.18h0Z" fill="#faa91e" fill-rule="evenodd"/><path d="M153.73,30.86l7.44-2.36c.34-.11,.52-.47,.41-.81l-1.42-4.49c-.11-.34-.46-.54-.8-.43l-7.44,2.36c-.34,.11-.53,.48-.42,.82l1.42,4.49c.11,.34,.48,.53,.82,.42h0Z" fill="#eb9c22" fill-rule="evenodd"/><g><rect x="153.54" y="25.45" width=".85" height="4.37" transform="translate(-1.16 47.78) rotate(-17.57)" fill="#ffd998"/><rect x="158.68" y="23.82" width=".85" height="4.37" transform="translate(-.43 49.25) rotate(-17.57)" fill="#ffd998"/></g><rect x="156.1" y="24.63" width=".87" height="4.37" transform="translate(-.79 48.51) rotate(-17.57)" fill="#ffd998"/><polygon points="176.39 44.9 177.21 45.27 165.24 72.79 163.12 71.82 176.39 44.9" fill="#ce8b2a" fill-rule="evenodd"/><path d="M167.09,60.15c1.94-.61,4,.46,4.61,2.39,.61,1.92-.46,3.98-2.4,4.6-1.92,.61-3.99-.46-4.6-2.38-.61-1.94,.46-4,2.38-4.61h0Z" fill="#eb9c22" fill-rule="evenodd"/><path d="M167.69,62.04c.89-.28,1.83,.22,2.11,1.1s-.2,1.82-1.09,2.1-1.83-.22-2.1-1.09,.2-1.84,1.09-2.12h0Z" fill="#ce8b2a" fill-rule="evenodd"/></g><g><path d="M276.18,9.24c-9.15,3.82-6.06,14.52-7.29,14.52-4.53,0-8.28,4.06-9.27,6.58-1.1,2.81-1.09,5.75-.26,8.05,1.82,5.05-13.8,2.42-15.34,6.17,0,3.75,7.65,5.65,20.79,3.04,13.14-2.61,45.58,14.37,46.4-4.08,.82-18.45-20.17-6.45-20.17-11.01s7.49-3.77,13.84-13.39c6.35-9.63-19.55-13.71-28.7-9.89Z" fill="rgba(98,142,201,.15)" fill-rule="evenodd"/><g mask="url(#mask)"><g><path d="M309.32,13.88s2.98-2.88-2.4,0c-1.05,.56-4.46,6.94-8.22,6.27-7.09-1.28-9.1,6.63-14.11,6.63-1.57,0-10.24-1.29-8.16,.53,.82,.72,2.75-.16,5.33,3.29,2.41,3.23,7.21,5.26,11.49,2.86,1.99-1.12,8.31,.87,12.01,1.98,6.71,2,1.67-1.98,1.67-1.98l-9.9-1.5,11.64-10.9,.66-7.18Z" fill="rgba(98,142,201,.15)" fill-rule="evenodd"/><path d="M259.8,29.46s-1.13,8.27,2.78,10.03,1.98,2.14-.43,1.77c-2.41-.37-4.86-.25-5.63,0s-7.94-.87-7.94-.87c0,0,1.55,1.43,3.98,.87,2.42-.57,7.25-11.8,7.25-11.8Z" fill="rgba(98,142,201,.15)" fill-rule="evenodd"/><path d="M263.54,25.55s5.03-2.31,8.69-.52c1.06,.52,.52-.87-.63-1.42-1.98-.95-2.39-3.49-1.87-6.29,.5-2.7-1.87,2.68-2.97,2.94-1.1,.26-3.21,5.28-3.21,5.28Z" fill="rgba(98,142,201,.15)" fill-rule="evenodd"/><path d="M246.75,49.38c-5.46,0-3.62-5.83-3.59-5.69,1.3,5.02,18.96,1.39,22.87,1.39s3.3-.3,17.57,1.79c4.24,.62,8.15,.16,11.63-.72,8.65-2.18,14.6-6.92,16.06-3.86,.22,.46,3.44,10.22,1.53,11.69-3.93,3.01-33.52,.43-41-2.61-7.48-3.04-19.61-1.99-25.07-1.99Z" fill="rgba(98,142,201,.5)" fill-rule="evenodd"/></g></g><g><path d="M414.58,52.81c-.63,.55-5.34,0-7.19,3.22-2.05,3.58,1.58,5.61-1.27,7.91-.97,.78-1.32,1.04-6.14,.63-4.28-.36-10.4,2.83-8.78,4.52,1.62,1.69,11.24,1.71,19.47,1.21,5.21-.32,9.79-1.05,12.93-1.12,9.04-.22,13.2,.93,13.56-1.3,.36-2.23-4.78-8.22-8.66-7.27-3.88,.95,.26-.6,.4-2.5,.24-3.25-.63-1.51-.18-4.27,.56-3.5,.89-4.93-4.08-5.75-1.72-.29-1.99-4.23-7.96-3.42-5.97,.81-1.46,7.61-2.1,8.15Z" fill="rgba(98,142,201,.15)" fill-rule="evenodd"/><g mask="url(#mask-1)"><g><path d="M389.21,69.62s1.18-.59,5.87-.99c4.69-.39,6.74,1.08,12.68,1,5.93-.08,14.44-1.96,19.59-3.63,5.14-1.67,8.45,.52,10.15,2.9,1.7,2.39,.56,.99-3.7,2.86-4.25,1.87-8.92-.49-11.68-1.12-2.76-.62,9.79,1.74-12.94,1.46-22.73-.27-19.97-2.5-19.97-2.5Z" fill="rgba(98,142,201,.5)" fill-rule="evenodd"/><path d="M406.66,58.13s.86,2.84,1.87,3.25c.95,.39,1.95,.56,4.03-.22,1.21-.45,2.31,.17,.32,1.31-3.09,1.76-5.72,2.58-10.47,1.82-3.68-.59,4.26-6.15,4.26-6.15Z" fill="rgba(98,142,201,.15)" fill-rule="evenodd"/><path d="M432.23,51.46c.43,.68-2.49-6.58-5.49-3.74-.51,.48,.11,1.08,.22,2.89,.09,1.56-2.43,5.97-4.88,4.72-1.24-.63-3.34-.58-2.94,.19,.32,.61,1.47,.78,1.78,2.2,.23,1.06,.3,2.97-2.26,5.12-1.17,.99,6.54-1.48,8.79-2.04,3.54-.88,5.55-2.75,7.49-4.01,1.93-1.26-1.52-4.53-1.52-4.53,0,0-1.62-1.49-1.19-.81Z" fill="rgba(98,142,201,.15)" fill-rule="evenodd"/><path d="M413.72,49.54s1.36,3.02,3.24,3.68c1.88,.66,.12,1.08-.77,.55-.89-.53-1.82-.63-2.38-.38-.56,.25-1.87-.12-2.86,.14-1,.26,2.78-3.98,2.78-3.98Z" fill="rgba(98,142,201,.15)" fill-rule="evenodd"/></g></g></g></g></g></g></g></svg>