<?xml version="1.0" encoding="UTF-8"?><svg width="440" height="106" id="Layer_2" xmlns="http://www.w3.org/2000/svg" viewBox="0 0 438.83 105.89"><g id="Layer_1-2"><g><g><rect width="438.83" height="105.89" fill="#fff"/><g><path d="M160.89,39.48c.45-.46,1.07-.72,1.71-.73h1.42s68.1-.62,68.1-.62c1.34-.01,2.44,1.07,2.45,2.41l.22,24.32c.01,1.34-1.07,2.44-2.41,2.45l-68.1,.61h-1.42c-.65,.02-1.26,.28-1.71,.74l-3.41,3.47c-.45,.46-1.07,.72-1.71,.73l-7.71,.07c-.65,0-1.27-.24-1.73-.7l-3.47-3.41c-.46-.45-1.08-.7-1.73-.7h-1.42s-4.86,.06-4.86,.06c-1.34,.01-2.44-1.07-2.45-2.41l-.22-24.32c-.01-1.34,1.07-2.44,2.41-2.45l4.86-.04h1.42c.65-.02,1.27,.23,1.73,.68l3.47,3.41c.46,.45,1.08,.7,1.73,.7l7.71-.07c.65,0,1.26-.27,1.71-.73l3.41-3.47Z" fill="#4c7dbf" fill-rule="evenodd"/><path d="M161.25,67.89c.45-.46,1.07-.73,1.71-.73l1.42-.02,38.92-.47c1.34-.02,2.45,1.06,2.46,2.4l.29,24.32c.02,1.34-1.06,2.45-2.4,2.46l-38.92,.47-1.42,.02c-.65,0-1.26,.27-1.71,.73l-3.4,3.48c-.45,.46-1.07,.73-1.71,.73l-7.71,.09c-.65,0-1.27-.24-1.73-.69l-3.48-3.4c-.46-.45-1.08-.7-1.73-.69l-1.42,.02-4.86,.06c-1.34,.02-2.45-1.06-2.46-2.4l-.29-24.32c-.02-1.34,1.06-2.45,2.4-2.46l4.86-.06,1.42-.02c.65,0,1.27,.24,1.73,.69l3.48,3.4c.46,.45,1.08,.7,1.73,.69l7.71-.09c.64,0,1.26-.27,1.71-.73l3.4-3.48Z" fill="#ec9d22" fill-rule="evenodd"/><path d="M132.73,38.47l-.52-25.51s9.07-9.44,27.62-9.82c18.56-.38,28,8.69,28,8.69l31.61-.64c1.3-.03,2.32,1,2.35,2.25l.47,23.16c.03,1.3-1,2.32-2.25,2.35l-58.47,1.19c-.6,.01-1.2,.27-1.64,.73l-3.23,3.37c-.44,.46-.99,.72-1.64,.73l-7.35,.15c-.6,.01-1.21-.23-1.66-.67l-3.37-3.23c-.46-.44-1.01-.68-1.66-.67l-6,.12c-1.15,.12-2.22-.91-2.25-2.21Z" fill="#fdbe10"/><path d="M310.87,39.48c.45-.46,1.07-.72,1.71-.73h1.42s68.1-.62,68.1-.62c1.34-.01,2.44,1.07,2.45,2.41l.22,24.32c.01,1.34-1.07,2.44-2.41,2.45l-68.1,.61h-1.42c-.65,.02-1.26,.28-1.71,.74l-3.41,3.47c-.45,.46-1.07,.72-1.71,.73l-7.71,.07c-.65,0-1.27-.24-1.73-.7l-3.47-3.41c-.46-.45-1.08-.7-1.73-.7h-1.42s-4.86,.06-4.86,.06c-1.34,.01-2.44-1.07-2.45-2.41l-.22-24.32c-.01-1.34,1.07-2.44,2.41-2.45l4.86-.04h1.42c.65-.02,1.27,.23,1.73,.68l3.47,3.41c.46,.45,1.08,.7,1.73,.7l7.71-.07c.65,0,1.26-.27,1.71-.73l3.41-3.47Z" fill="#af5aa3" fill-rule="evenodd"/><path d="M311.23,67.89c.45-.46,1.07-.73,1.71-.73l1.42-.02,38.92-.47c1.34-.02,2.45,1.06,2.46,2.4l.29,24.32c.02,1.34-1.06,2.45-2.4,2.46l-38.92,.47-1.42,.02c-.65,0-1.26,.27-1.71,.73l-3.4,3.48c-.45,.46-1.07,.73-1.71,.73l-7.71,.09c-.65,0-1.27-.24-1.73-.69l-3.48-3.4c-.46-.45-1.08-.7-1.73-.69l-1.42,.02-4.86,.06c-1.34,.02-2.45-1.06-2.46-2.4l-.29-24.32c-.02-1.34,1.06-2.45,2.4-2.46l4.86-.06,1.42-.02c.65,0,1.27,.24,1.73,.69l3.48,3.4c.46,.45,1.08,.7,1.73,.69l7.71-.09c.64,0,1.26-.27,1.71-.73l3.4-3.48Z" fill="#7e69ad" fill-rule="evenodd"/><path d="M282.7,38.86l-.52-25.38s9.02-9.39,27.48-9.77,27.86,8.65,27.86,8.65l31.45-.64c1.29-.03,2.31,1,2.34,2.24l.47,23.04c.03,1.29-1,2.31-2.24,2.34l-58.18,1.18c-.6,.01-1.19,.27-1.63,.73l-3.22,3.35c-.44,.46-.98,.72-1.63,.73l-7.32,.15c-.6,.01-1.2-.22-1.66-.66l-3.35-3.22c-.46-.44-1.01-.68-1.66-.66l-5.97,.12c-1.14,.12-2.21-.9-2.24-2.2Z" fill="#fdbe10"/><g><path d="M379.94,60.46c-.33-1.77-.67-5.6,1.5-9.37,.39-.67,1.33-.55,1.61,.11,.72,1.94,2.11,5.04,4.32,6.76,.5,.33,1.11,.44,1.66,.28,4.55-1.55,27.16-8.26,34.97,8.54,8.7,18.68-4.05,31.32-20.95,35.14-17.13,3.88-24.33-4.93-29.43-15.85-5.93-12.64,2.83-21.45,5.65-23.89,.55-.44,.78-1.05,.66-1.72Z" fill="#5fc8de"/><path d="M393.85,77.48c-2.66-.72-3.33-5.1,.17,10.36,0,.06,0,.11,.06,.17,.33,1.61-1.22,2.94-3.38,2.94s-4.27-1.33-4.6-2.94c-.33-1.61,1.22-2.94,3.38-2.94,.44,0,.94,.06,1.39,.17,.22,.06,.44,.11,.66,.22,.61,0-.11-1.66-1.33-8.76-1.55-8.81,2.22-1.33,6.32-2,4.05-.61,0,3.44-2.66,2.77Z" fill="#fff"/><path d="M409.59,71.99c-2.66-.72-3.33-5.1,.17,10.36,0,.06,0,.11,.06,.17,.33,1.61-1.22,2.94-3.38,2.94s-4.27-1.33-4.6-2.94c-.33-1.61,1.22-2.94,3.38-2.94,.44,0,.94,.06,1.39,.17,.22,.06,.44,.11,.67,.22,.61,0-.11-1.66-1.33-8.76-1.55-8.81,2.22-1.33,6.32-1.94,4.05-.67,0,3.38-2.66,2.72Z" fill="#fff"/></g><g><path d="M27.39,1.35c5.11-1.62,10.57,1.2,12.19,6.31,1.61,5.1-1.23,10.55-6.34,12.16s-10.55-1.21-12.17-6.3,1.21-10.56,6.32-12.17h0Zm.63,2c4.01-1.27,8.28,.95,9.55,4.95,1.27,4-.95,8.27-4.96,9.54s-8.28-.95-9.55-4.95c-1.27-4,.95-8.27,4.96-9.54h0Z" fill="#ce8b2a" fill-rule="evenodd"/><rect x="31.28" y="16.12" width="3.81" height="7.08" transform="translate(-4.39 10.94) rotate(-17.57)" fill="#ce8b2a"/><path d="M9.71,27.09l5.03-5.51c.34-.36,.92-.39,1.29-.05h0c.38,.33,.4,.92,.07,1.28l-5.04,5.52c-.34,.36-.92,.39-1.29,.05h0c-.36-.34-.4-.92-.05-1.29h0Z" fill="#faa91e" fill-rule="evenodd"/><path d="M11.46,27.85l4.2-4.58,2.82,2.56c.25,.23,.26,.62,.04,.89l-3.37,3.65c-.22,.26-.62,.28-.87,.04l-2.82-2.56Z" fill="#eb9c22" fill-rule="evenodd"/><polygon points="15.78 29.71 17.9 27.39 21.23 30.45 19.11 32.76 15.78 29.71" fill="#ce8b2a" fill-rule="evenodd"/><path d="M56.66,12.22l-7.29-1.61c-.48-.1-.98,.21-1.08,.7h0c-.1,.48,.2,.98,.7,1.08l7.29,1.61c.48,.1,.98-.21,1.08-.7h0c.12-.49-.2-.98-.7-1.08h0Z" fill="#faa91e" fill-rule="evenodd"/><path d="M55.67,13.85l-6.07-1.32-.82,3.71c-.09,.33,.13,.67,.48,.75l4.84,1.05c.33,.09,.67-.13,.75-.48l.82-3.72Z" fill="#eb9c22" fill-rule="evenodd"/><polygon points="53.2 17.86 50.14 17.18 49.17 21.6 52.23 22.27 53.2 17.86" fill="#ce8b2a" fill-rule="evenodd"/><path d="M33.42,20.39c15.68-4.97,32.41,3.7,37.37,19.36,4.95,15.64-3.74,32.36-19.42,37.33-15.68,4.97-32.41-3.7-37.37-19.35-4.96-15.66,3.73-32.38,19.41-37.35h0Z" fill="#eb9c22" fill-rule="evenodd"/><path d="M33.42,20.39c15.68-4.97,32.41,3.7,37.37,19.36,1.39,4.4,1.7,8.88,1.09,13.16-3.6,3.89-8.22,6.93-13.62,8.64-16.57,5.25-34.27-3.92-39.51-20.47-.87-2.76-1.35-5.57-1.45-8.33,3.62-5.68,9.19-10.16,16.11-12.35h0Z" fill="#faa91e" fill-rule="evenodd"/><path d="M34.81,24.8c13.24-4.19,27.36,3.13,31.54,16.35,4.18,13.21-3.14,27.32-16.38,31.52-13.24,4.19-27.36-3.13-31.54-16.34-4.19-13.22,3.14-27.34,16.38-31.53h0Z" fill="#fcbd4d" fill-rule="evenodd"/><path d="M34.81,24.8c13.24-4.19,27.36,3.13,31.54,16.35,1.82,5.76,1.45,11.69-.63,16.9-2.27,1.46-4.77,2.63-7.46,3.49-16.57,5.25-34.27-3.92-39.51-20.47-.05-.15-.09-.29-.13-.46,2.49-7.27,8.29-13.31,16.19-15.82h0Z" fill="#ffd998" fill-rule="evenodd"/><path d="M35.41,26.7c12.18-3.86,25.19,2.89,29.04,15.06s-2.9,25.16-15.08,29.01c-12.18,3.86-25.19-2.89-29.03-15.04-3.85-12.17,2.89-25.17,15.08-29.03h0Z" fill="#ffe2b2" fill-rule="evenodd"/><path d="M35.41,26.7c12.18-3.86,25.19,2.89,29.04,15.06,1.97,6.22,1.16,12.67-1.72,17.99-1.42,.71-2.92,1.31-4.47,1.8-15.62,4.95-32.24-2.91-38.48-17.69,1.7-7.84,7.44-14.56,15.64-17.15h0Z" fill="#fff3cc" fill-rule="evenodd"/><g><polygon points="26.07 34.29 29.2 37.15 29.95 36.33 26.82 33.47 26.07 34.29" fill="#c37929"/><polygon points="21.2 44.27 25.35 45.18 25.6 44.09 21.45 43.17 21.2 44.27" fill="#c37929"/><polygon points="37.1 69.12 38.19 69.36 39.1 65.21 38.01 64.98 37.1 69.12" fill="#c37929"/><rect x="21.71" y="53.6" width="4.25" height="1.12" transform="translate(-15.24 9.73) rotate(-17.57)" fill="#c37929"/><polygon points="27.37 63.77 28.21 64.52 31.07 61.37 30.24 60.62 27.37 63.77" fill="#c37929"/><polygon points="57.15 32.88 56.32 32.13 53.45 35.27 54.28 36.02 57.15 32.88" fill="#c37929"/><polygon points="58.93 52.55 63.08 53.47 63.33 52.38 59.17 51.46 58.93 52.55" fill="#c37929"/><polygon points="45.43 31.43 46.52 31.67 47.44 27.52 46.34 27.29 45.43 31.43" fill="#c37929"/><rect x="58.56" y="41.93" width="4.25" height="1.12" transform="translate(-10 20.31) rotate(-17.57)" fill="#c37929"/><rect x="35.89" y="27.81" width="1.12" height="4.24" transform="translate(-7.34 12.4) rotate(-17.57)" fill="#c37929"/><polygon points="54.57 60.31 57.7 63.18 58.47 62.36 55.33 59.49 54.57 60.31" fill="#c37929"/><rect x="47.53" y="64.59" width="1.12" height="4.24" transform="translate(-17.9 17.63) rotate(-17.57)" fill="#c37929"/></g><g><polygon points="57.15 32.88 56.32 32.13 53.45 35.27 54.28 36.02 57.15 32.88" fill="#ce8b2a"/><polygon points="26.07 34.29 29.2 37.15 29.95 36.33 26.82 33.47 26.07 34.29" fill="#ce8b2a"/><rect x="35.89" y="27.81" width="1.12" height="4.24" transform="translate(-7.34 12.4) rotate(-17.57)" fill="#ce8b2a"/><polygon points="21.2 44.27 25.35 45.18 25.6 44.09 21.45 43.17 21.2 44.27" fill="#ce8b2a"/><polygon points="45.43 31.43 46.52 31.67 47.44 27.52 46.34 27.29 45.43 31.43" fill="#ce8b2a"/><rect x="58.56" y="41.93" width="4.25" height="1.12" transform="translate(-10 20.31) rotate(-17.57)" fill="#ce8b2a"/><path d="M54.57,60.31l1.9,1.73c.42-.1,.85-.22,1.28-.34l-2.42-2.21-.75,.82Z" fill="#ce8b2a"/><polygon points="58.93 52.55 63.08 53.47 63.33 52.38 59.17 51.46 58.93 52.55" fill="#ce8b2a"/></g><path d="M29.63,17.07l4.97-1.58c.13-.04,.21-.2,.17-.33l-.28-.88-5.46,1.73,.28,.88c.04,.13,.18,.22,.31,.17h0Z" fill="#faa91e" fill-rule="evenodd"/><path d="M28.09,16.32l7.36-2.33c.34-.11,.51-.47,.41-.8l-1.41-4.44c-.11-.34-.46-.53-.79-.42l-7.36,2.33c-.34,.11-.53,.47-.42,.81l1.41,4.44c.11,.34,.47,.53,.81,.42h0Z" fill="#eb9c22" fill-rule="evenodd"/><g><rect x="27.9" y="10.97" width=".84" height="4.32" transform="translate(-2.64 9.16) rotate(-17.57)" fill="#ffd998"/><rect x="32.98" y="9.36" width=".84" height="4.32" transform="translate(-1.92 10.62) rotate(-17.57)" fill="#ffd998"/></g><rect x="30.43" y="10.16" width=".86" height="4.32" transform="translate(-2.28 9.89) rotate(-17.57)" fill="#ffd998"/><polygon points="50.49 30.2 51.3 30.57 39.47 57.78 37.37 56.82 50.49 30.2" fill="#ce8b2a" fill-rule="evenodd"/><path d="M41.3,45.28c1.92-.61,3.96,.45,4.56,2.36,.6,1.9-.46,3.94-2.37,4.55s-3.94-.46-4.54-2.35,.45-3.95,2.36-4.56h0Z" fill="#eb9c22" fill-rule="evenodd"/><path d="M41.89,47.15c.88-.28,1.81,.22,2.08,1.09s-.2,1.8-1.08,2.08-1.81-.22-2.08-1.08,.2-1.81,1.08-2.09h0Z" fill="#ce8b2a" fill-rule="evenodd"/></g><g><g><g><rect x="75.3" y="48.08" width="7.88" height="58.17" transform="translate(58.7 185.85) rotate(-123.54)" fill="#2b8eb8"/><g><path d="M93.97,72.49l-1.74-2.66-2.77-4.23c-.83-1.27-2.54-1.62-3.81-.79l-36.4,23.86c-1.27,.83-1.62,2.54-.79,3.81l3.87,5.9,.65,.98c.83,1.27,2.54,1.62,3.81,.79l36.4-23.86c1.27-.83,1.62-2.54,.79-3.81Z" fill="#f47f20"/><path d="M93.97,72.49s-1.74-2.66-1.74-2.66c-2.43,4.18-6.23,6.65-10.07,9.43-5.88,4.25-11.84,8.39-17.76,12.58-3.51,2.48-7.29,5.34-11.5,6.44-.18,.05-.37,.08-.57,.1l.65,.98c.83,1.27,2.54,1.62,3.81,.79l36.4-23.86c1.27-.83,1.62-2.54,.79-3.81Z" fill="#d96f27"/></g></g><path d="M102.31,60.95c8.55,12.9,25.94,16.43,38.84,7.88,12.9-8.55,16.43-25.94,7.88-38.84-8.55-12.9-25.94-16.43-38.84-7.88s-16.43,25.94-7.88,38.84Zm10.34-35.12c10.84-7.19,25.46-4.22,32.65,6.62,7.19,10.84,4.22,25.46-6.62,32.65-10.84,7.19-25.46,4.22-32.65-6.62-7.19-10.84-4.22-25.46,6.62-32.65Z" fill="#2b8eb8"/></g><circle cx="125.67" cy="45.47" r="23.56" transform="translate(9.35 111.27) rotate(-49.39)" fill="#2b8eb8" opacity=".2"/></g></g></g><g><path d="M224.35,19.69c.49-.07,.99-.14,1.49-.22" fill="none" stroke="#ffe2b2" stroke-linecap="round" stroke-miterlimit="10" stroke-width="2.85"/><path d="M231.74,18.74c3.3-.31,6.61-.4,9.89,.04,5.74,.76,11.49,3.34,14.8,8.09,2.74,3.92,3.54,8.84,4.24,13.57,.42,2.8,.82,5.69,.15,8.45-.96,3.97-.55,9.55-4,11.74-4.03,2.57-12.52,1.41-15.73-2.13-2.85-3.14-2.93-15.6,12.86-13.91,3.42,.37,6.92,1.37,9.41,3.74,3.59,3.43,4.23,8.82,5.57,13.6,.92,3.28,2.72,6.77,5.36,8.66" fill="none" stroke="#ffe2b2" stroke-dasharray="0 0 2.97 5.95" stroke-linecap="round" stroke-miterlimit="10" stroke-width="2.85"/><path d="M276.96,71.84c.48,.11,.97,.18,1.48,.19" fill="none" stroke="#ffe2b2" stroke-linecap="round" stroke-miterlimit="10" stroke-width="2.85"/></g></g></g></svg>