<?xml version="1.0" encoding="UTF-8"?><svg width="440" height="106" id="Layer_2" xmlns="http://www.w3.org/2000/svg" viewBox="0 0 438.83 105.89"><g id="Layer_1-2"><g><rect width="438.83" height="105.89" fill="#fff"/><g><path d="M274.2,5.87h53.28c6.88,0,12.49,6.52,12.49,14.54s-5.61,14.54-12.49,14.54h-34.81v.07c-6.81,11.77-16.98,12.67-16.01,7.35,.67-3.67,1.2-5.32,.67-7.35h-3.07c-6.88,0-12.49-6.52-12.49-14.54-.07-8.1,5.46-14.62,12.42-14.62Z" fill="#bfccdc" fill-rule="evenodd"/><path d="M61.76,32.33c.37-.59,.95-1.01,1.63-1.16l1.49-.34,45.21-10.44c1.41-.32,2.81,.55,3.13,1.96l5.12,22.29c.32,1.41-.55,2.81-1.96,3.14l-45.21,10.44-1.49,.34c-.68,.16-1.26,.57-1.63,1.16l-2.77,4.43c-.37,.59-.95,1.01-1.63,1.16l-8.08,1.87c-.68,.16-1.38,.04-1.97-.33l-4.43-2.77c-.59-.37-1.3-.49-1.97-.33l-1.49,.34-5.09,1.18c-1.41,.32-2.81-.55-3.13-1.96l-5.12-22.29c-.32-1.41,.55-2.81,1.96-3.14l5.09-1.18,1.49-.34c.68-.16,1.39-.04,1.97,.33l4.43,2.77c.59,.37,1.3,.49,1.97,.33l8.08-1.87c.68-.16,1.26-.57,1.63-1.16l2.77-4.43Z" fill="#00a87d" fill-rule="evenodd"/><path d="M107.05,60.97c.37-.59,.95-1.01,1.63-1.16l1.49-.34,10.19-2.35c1.41-.32,2.81,.55,3.13,1.96l5.12,22.29c.32,1.41-.55,2.81-1.96,3.14l-10.19,2.35-1.49,.34c-.68,.16-1.26,.57-1.63,1.16l-2.77,4.43c-.37,.59-.95,1.01-1.63,1.16l-8.08,1.87c-.68,.16-1.38,.04-1.97-.33l-4.43-2.77c-.59-.37-1.3-.49-1.97-.33l-1.49,.35-5.09,1.18c-1.41,.32-2.81-.55-3.13-1.96l-5.12-22.29c-.32-1.41,.55-2.81,1.96-3.14l5.09-1.18,1.49-.35c.68-.16,1.38-.04,1.97,.33l4.43,2.77c.59,.37,1.3,.49,1.97,.33l8.08-1.87c.68-.16,1.26-.57,1.63-1.16l2.77-4.43Z" fill="#7267ad" fill-rule="evenodd"/><g><path d="M204.21,14.28h-53.18c-1.96,0-3.55,1.59-3.55,3.56v46.61c0,1.97,1.59,3.56,3.55,3.56h53.18c1.96,0,3.55-1.59,3.55-3.56V17.84c0-1.97-1.59-3.56-3.55-3.56Z" fill="#1b93be"/><path d="M204.21,14.81c.8,0,1.57,.32,2.14,.89,.57,.57,.88,1.34,.88,2.14v46.61c0,.8-.32,1.57-.88,2.14-.57,.57-1.34,.89-2.14,.89h-53.19c-.8,0-1.57-.32-2.14-.89-.57-.57-.89-1.34-.89-2.14V17.84c0-.8,.32-1.57,.89-2.14,.57-.57,1.34-.89,2.14-.89h53.19Zm0-1.06h-53.19c-1.08,0-2.12,.43-2.88,1.2-.76,.77-1.19,1.8-1.2,2.89v46.61c0,1.08,.43,2.12,1.2,2.89,.76,.77,1.8,1.2,2.88,1.2h53.19c1.08,0,2.12-.43,2.88-1.2,.76-.77,1.19-1.8,1.2-2.89V17.84c0-1.08-.43-2.12-1.2-2.89-.76-.77-1.8-1.2-2.88-1.2Z" fill="#bfccdc"/><path d="M209.29,14.81c3.47,0,6.28-2.82,6.28-6.29s-2.81-6.29-6.28-6.29-6.28,2.82-6.28,6.29,2.81,6.29,6.28,6.29Z"/><path d="M213.58,27.77s4.47-1.81,2.82,4.11c-1.65,5.92-4.53,2.95-4.53,2.95,0,0-.28-2.64-.04-3.59,.21-.84,1.76-3.47,1.76-3.47Z" fill="#977945"/><path d="M190.66,41.74s-6.3-4.32-15.91-2.26c-10.53,2.26-14.56,5.59-14.56,5.59l5.53,12.96,2.57,.57c.15,.03,.29,.1,.41,.18,.12,.09,.23,.2,.31,.33,.08,.13,.13,.27,.16,.42,.02,.15,.02,.3-.02,.45l-1.89,7.49h33.65s5.8,.89,6.33-2.39v-19.15s-.34-1.31-4.37-1.15c-4.04,.16-12.19-3.05-12.19-3.05Z" fill="#ee3e69"/><path d="M193.8,36.74s-.22,2.45-3.14,4.99c0,0,2.11,5.09,5.12,6.3,3.01,1.21,5.61-1.01,5.61-1.01,1.79-1.72,2.92-4.66,2.92-4.66l-10.5-5.63Z" fill="#977945"/><path d="M216.54,25.05c0-9.13-6.75-16.53-15.07-16.53s-12.64,7.4-12.64,16.53c0,6.05,3.62,10.99,7.35,13.86,.84,.64,1.79,1.54,2.57,2.09,1.61,1.13,3.78,2.81,7.22,3.16,5.04,.52,8.91-6.63,9-9.95,.05-.96,.2-1.91,.43-2.85,.73-2.03,1.11-4.17,1.12-6.33Z" fill="#a57e4c"/><path d="M202.34,30.32c.02-.58-.35-1.06-.82-1.08s-.87,.44-.89,1.02c-.02,.58,.35,1.06,.82,1.08,.47,.02,.87-.44,.89-1.02Z"/><path d="M212.26,30.66c.02-.58-.35-1.06-.82-1.08-.47-.02-.87,.44-.89,1.02-.02,.58,.35,1.06,.82,1.08,.47,.02,.87-.44,.89-1.02Z"/><path d="M207.66,30.08s-.37,1.04,.06,1.79c.43,.75,3.69,5.61-1.4,3.92" fill="none" stroke="#663815" stroke-linecap="round" stroke-miterlimit="10" stroke-width=".32"/><path d="M202.4,37.73c1.1,.9,4.57,3.27,7.23,.37,.02-.02,.03-.04,.04-.07,0-.03,0-.05-.01-.08-.01-.02-.03-.04-.05-.06-.02-.01-.05-.02-.08-.02l-1.81,.15c-.93,.07-1.86,.03-2.78-.12l-2.44-.41s-.06,0-.08,.02c-.02,.01-.04,.04-.06,.06-.01,.03-.01,.05,0,.08,0,.03,.02,.05,.04,.07Z" fill="#fff"/><path d="M191.01,16.38c3.47,0,6.28-2.82,6.28-6.29s-2.81-6.29-6.28-6.29-6.28,2.82-6.28,6.29,2.81,6.29,6.28,6.29Z"/><path d="M190.32,16.59c-1.16,3.3-1.66,6.79-1.47,10.28,0,0,1.47-.79,2.78,1.38,0,0,4.75-10.81,12.67-11.11,0,0,.05-6.82-4.41-8.53-2.18,.23-4.24,1.13-5.88,2.58-1.62,1.5-2.87,3.35-3.68,5.4Z"/><path d="M205.27,17.03s10.29,.03,11.26,7.37c0,0,0-10.19-8.89-14.43,0,0-2.69-1.8-7.35-1.39l-.74,.08,5.72,8.37Z"/><path d="M192.62,26.34s.45,3.68,.42,5.53c0,0-.82-2.97-1.41-3.61l.22-1.74,.77-.17Z"/><path d="M205.09,26.6c.11,.09,0,.27-.15,.25-1.19-.12-4.41-.37-6.66,.28-1.63,.46,4.07-2.73,6.8-.53Z"/><path d="M208.33,26.85s-.04,.05-.05,.08c0,.03,0,.06,0,.09,.01,.03,.04,.05,.06,.07,.03,.01,.06,.02,.09,.01,1.07-.06,3.95-.14,5.91,.61,1.42,.54-3.44-2.92-6.03-.87Z"/><path d="M190.9,27.14s-4.47-1.81-2.81,4.11c1.65,5.92,4.53,2.95,4.53,2.95,0,0,.28-2.64,.04-3.59-.22-.84-1.76-3.47-1.76-3.47Z" fill="#977945"/><path d="M191.79,35.42c.43,0,.77-.35,.77-.77s-.35-.77-.77-.77-.77,.35-.77,.77,.35,.77,.77,.77Z" fill="#f9a11b"/><path d="M160.18,45.07s-17.98,6.02-18.48,11.14c-.5,5.12-1,8.34,20.93,11.27l13.12-1.89s-16.25-6.56-19.02-7.92l8.36-1.11-4.9-11.5Z" fill="#a57e4c"/><path d="M156.73,57.67c-2.26-1.47-4.87-2.32-7.56-2.49" fill="none" isolation="isolate" opacity=".1" stroke="#000" stroke-linecap="round" stroke-miterlimit="10" stroke-width=".32"/><path d="M178.23,65.03c2.85-.42,9.72-.76,11.52-.44,1.8,.31,3.78,7.08,3.81,7.91,0,.53-1.22,.48-1.63-.37s-2.78-4.95-3.37-5.08c-.58-.14-2.43,.45-2.43,.45h-23.51s12.82-2.04,15.61-2.46Z" fill="#a57e4c"/><path d="M189.15,69.87c-.46,.21-1.22-.41-1.39-.8l-1.52-3.32c-.04-.11-.06-.22-.06-.33,0-.11,.03-.23,.08-.33,.05-.1,.12-.2,.2-.27,.08-.08,.18-.14,.29-.17,.2-.11,.43-.14,.64-.08,.22,.06,.4,.2,.51,.4l1.52,3.31c.18,.39,.19,1.37-.27,1.59Z" fill="#a57e4c"/><path d="M185.11,71.9c-.52,.16-1.29-.55-1.44-1.06l-1.47-4.74c-.04-.12-.05-.25-.04-.38s.05-.25,.11-.37c.06-.11,.15-.21,.25-.3,.1-.08,.22-.14,.34-.18,.25-.08,.52-.06,.75,.06,.23,.12,.41,.33,.49,.57l1.47,4.74c.16,.51,.07,1.48-.45,1.65Z" fill="#a57e4c"/><path d="M187.02,70.02c-.46,.21-1.23-.44-1.41-.84l-1.56-3.42c-.08-.21-.07-.45,.02-.65,.09-.21,.26-.37,.48-.45,.46-.21,1.62-.09,1.8,.31l.93,3.44c.18,.4,.2,1.4-.26,1.61Z" fill="#a57e4c"/><path d="M189.04,73.51c-.5,.04-1-.74-1.03-1.13l-.28-3.36c.01-.22,.11-.42,.27-.57s.37-.23,.59-.22c.21-.04,.43,0,.62,.12,.18,.12,.31,.3,.36,.52l.28,3.36c.02,.39-.29,1.25-.8,1.29Z" fill="#a57e4c"/><path d="M186.81,72.78c-.51,.04-.99-.62-1.02-.96l-.24-2.9c-.03-.34,.37-.65,.86-.69,.51-.04,.94,.2,.97,.54l.24,2.9c.03,.33-.31,1.07-.81,1.12Z" fill="#a57e4c"/></g><g><path d="M362.35,46.07h-53.18c-1.96,0-3.55,1.59-3.55,3.56v46.61c0,1.97,1.59,3.56,3.55,3.56h53.18c1.96,0,3.55-1.59,3.55-3.56V49.63c0-1.97-1.59-3.56-3.55-3.56Z" fill="#b662a5"/><path d="M362.35,46.6c.8,0,1.57,.32,2.14,.89,.57,.57,.89,1.34,.89,2.14v46.61c0,.4-.08,.79-.23,1.16-.15,.37-.37,.7-.65,.98-.28,.28-.61,.51-.98,.66-.37,.15-.76,.23-1.16,.23h-53.2c-.4,0-.79-.08-1.16-.23-.37-.15-.7-.38-.98-.66s-.5-.62-.65-.98c-.15-.37-.23-.76-.23-1.16V49.63c0-.8,.32-1.57,.88-2.14s1.34-.89,2.14-.89h53.2Zm0-1.06h-53.2c-1.08,0-2.12,.43-2.88,1.2-.76,.77-1.19,1.8-1.2,2.89v46.61c0,1.08,.43,2.12,1.2,2.89,.76,.77,1.8,1.2,2.88,1.2h53.2c1.08,0,2.12-.43,2.88-1.2,.76-.77,1.19-1.8,1.2-2.89V49.63c0-1.08-.43-2.12-1.2-2.89-.76-.77-1.8-1.2-2.88-1.2Z" fill="#bfccdc"/><path d="M342.48,52.8c-2.57,8.76-11.18,16.45-19,14.31-7.83-2.14-12.22-11.01-9.82-19.82,2.4-8.81,10.5-13.33,18.51-12.08,9.39,1.47,12.36,10.63,10.31,17.59Z" fill="#d59d7a"/><path d="M314.62,44.91s-.74,2.81-4.41,3.36c-3.68,.55,.3,3.12,.3,3.12,0,0-1.16,.56-1.24,1.39-.08,.83,1.71,1.36,1.86,1.4,1.21,.34,2.53,.05,.74,1.54-.94,.77-.79,.31-1.79,.74-1.67,.71-.44,1.66-.44,1.66,0,0-.19,3.75,.71,4.95,.9,1.2,15.42,4.5,15.42,4.5l-11.14-22.66Z" fill="#d59d7a"/><path d="M315.86,47.56c.27-.51,.21-1.07-.12-1.24-.33-.17-.81,.11-1.08,.62-.27,.51-.21,1.07,.12,1.24,.33,.17,.81-.11,1.08-.62Z"/><g><path d="M301.3,83.56l-9.61,6.65s-13.26-8.2-19.52-11.31c-6.27-3.11-6.25,2.33-2.67,5.65,3.58,3.32,19.12,14.86,22.5,15.58,5.72,1.21,18.38-4.34,18.38-4.34l-9.08-12.24Z" fill="#d59d7a"/><path d="M268.83,85.33l-6.04-.81c-.88,0-1.72-.35-2.34-.97-.62-.62-.97-1.46-.97-2.34s.35-1.72,.97-2.34c.62-.62,1.46-.97,2.34-.97h4.35c.88,0,1.72,.35,2.34,.97,.62,.62,.97,1.46,.97,2.34,.02,1.84,.22,4.13-1.62,4.13Z" fill="#d59d7a"/><path d="M269.64,79.09s-2.13-3.02-3.58-4.3c-1.46-1.27-2.03-2.46-3.33-2.56-1.31-.09-.67,1.95,.61,3.43l1.17,3.43h5.13Z" fill="#d59d7a"/><path d="M263.09,78.4l-4.23-2.21s-.05-3.17-1.1-4.1c-1.05-.92-1.28,2.89-.64,4.85,.64,1.96,5.44,3.64,5.44,3.64l.54-2.18Z" fill="#d59d7a"/><path d="M262.31,81.86s-5.46,1.31-7.8-6.95c0,0-1.25-4.24,1.02-2.58,1.2,.88,2.7,4.96,2.7,4.96l4.78,3.45-.7,1.12Z" fill="#d59d7a"/><path d="M262.18,81.5s-6.44-3.92-7.98-8.19c0,0-.9-1.67-1.29,.22-.39,1.89,2.1,6.39,2.1,6.39l4.48,2.45,2.69-.86Z" fill="#d59d7a"/><path d="M262.79,84.51s-6.1-.47-7.58-2.05c-1.48-1.58-2.7-5.53-2.7-5.53,0,0,1.31-1.62,2.79,1.68,1.74,3.9,6.88,2.86,6.88,2.86l.61,3.04Z" fill="#d59d7a"/><path d="M259.09,81.48c-.71-.58-2.84-.74-2.84-.74-.78-1.99-2.6-4.13-2.6-4.13,0,0,2.24,1.47,2.77,3.6l2.67,1.26Z" fill="#241f20" isolation="isolate" opacity=".1"/><path d="M254.2,73.31s1.77,2.7,2.18,4.89c.96,.61,1.87,1.3,2.72,2.06,0,0-.76-1.94-2.36-2.39,0,.01-1.43-4.21-2.54-4.56Z" fill="#241f20" isolation="isolate" opacity=".1"/><path d="M256.74,73.96s1.21,1.82,1.49,3.31c0,0,.45,.04,1.57,1.13,0,0-.68-1.18-1.21-1.47,0,0-.85-2.73-1.85-2.97Z" fill="#241f20" isolation="isolate" opacity=".1"/><path d="M262.18,77.93s-1.59,.63-2.57,3.68c0-.01-.17-3.43,2.57-3.68Z" fill="#241f20" isolation="isolate" opacity=".1"/></g><path d="M334.99,70.34l8.11,4.72-8.11,.61v-5.34Z" fill="#df8225"/><path d="M300.37,101.96l-1.58-1.21c-2.32-1.78-4.16-4.12-5.32-6.81l-1.69-3.9c-.12-.29-.15-.6-.07-.91,.08-.3,.26-.57,.51-.75,0,0,10.66-6.16,13.93-8.65,1.98-1.6,3.87-3.3,5.66-5.11,3.31-2.48,11.62-5.29,14.09-1.96l1.36,1.84c2.47,3.32,2.67,14.04-.65,16.51l-23.67,10.96c-.37,.28-.82,.42-1.28,.42-.46,0-.91-.16-1.27-.44Z" fill="#df8225"/><path d="M316.3,65.21s3.97,4.08,4.21,8.84c.19,3.65,2.77,4.46,6.79,3.74,2.88-.52,5.55-2.12,7.05-3.03,1.5-.91,1.9-2.58,.92-4.01l-3.25-4.79-15.71-.76Z" fill="#d59d7a"/><path d="M315.5,45.37c.49,.18,1.44-.25,1.72,1.2,.27,1.45,.93-1.22,0-1.92-1.34-1.02-2.58,.4-1.72,.73Z" fill="#402314"/><path d="M313.13,48.47c.08,0,.14-.06,.14-.14s-.06-.14-.14-.14-.14,.06-.14,.14,.06,.14,.14,.14Z" fill="#a57e4c"/><path d="M312.83,50.17c.09,0,.17-.07,.17-.17s-.07-.17-.17-.17-.17,.07-.17,.17,.07,.17,.17,.17Z" fill="#a57e4c"/><path d="M311.97,48.5c.09,0,.17-.07,.17-.17s-.07-.17-.17-.17-.17,.07-.17,.17,.07,.17,.17,.17Z" fill="#a57e4c"/><path d="M314.59,49.5c.09,0,.17-.07,.17-.17s-.07-.17-.17-.17-.17,.07-.17,.17,.07,.17,.17,.17Z" fill="#a57e4c"/><path d="M316.63,50.97c.16,0,.29-.13,.29-.29s-.13-.29-.29-.29-.29,.13-.29,.29,.13,.29,.29,.29Z" fill="#a57e4c"/><path d="M314.46,50.65c.07,0,.14-.06,.14-.14s-.06-.14-.14-.14-.14,.06-.14,.14,.06,.14,.14,.14Z" fill="#a57e4c"/><path d="M313.52,49.3s.07-.03,.07-.07-.03-.07-.07-.07-.07,.03-.07,.07,.03,.07,.07,.07Z" fill="#a57e4c"/><path d="M314.16,52.13c.09,0,.17-.07,.17-.17s-.07-.17-.17-.17-.17,.07-.17,.17,.07,.17,.17,.17Z" fill="#a57e4c"/><path d="M316.19,52.26s.07-.03,.07-.07-.03-.07-.07-.07-.07,.03-.07,.07,.03,.07,.07,.07Z" fill="#a57e4c"/><path d="M315.04,47.76c.74-1.91,.93-3.62,.43-3.82-.5-.19-1.5,1.2-2.24,3.12-.74,1.91-.93,3.62-.43,3.82,.5,.19,1.5-1.2,2.24-3.12Z" fill="none" stroke="#7c4a20" stroke-miterlimit="10" stroke-width=".51"/><path d="M314.76,47.76c.74-1.91,.93-3.62,.43-3.82-.5-.19-1.5,1.2-2.24,3.12-.74,1.91-.93,3.62-.43,3.82,.5,.19,1.5-1.2,2.24-3.12Z" fill="#d1dbe6" isolation="isolate" opacity=".3"/><path d="M315.66,46.29l7.5,3.55" fill="none" stroke="#7c4a20" stroke-miterlimit="10" stroke-width=".7"/><path d="M328.05,34.08s-3.64-3.68-5.48-1.54c-1.84,2.15-6.98,9.26-1,15.28,2.66,2.69,.04,3.13-.17,6.78-.21,3.65,3.47-5.66,5.69-3.37,1.06,1.1,1.14,3.13,.24,4.2-.97,1.16-2.96,1.36-2.72,2.49,.22,1.05,1.54,3.77,3.27,5.45,1.19,1.13,2.59,2.01,4.13,2.58,0,0,6.96-2.1,8.3-5.28,1.34-3.18,.78-3.42,1.3-1.18,.69,2.92,6.72-8.76,3.21-15.86-3.51-7.1-9.04-11.31-16.77-9.57Z" fill="#402314"/><path d="M362.35,99.27h-22.98l-3.94-13.05c-1.14-4.51,.33-11.65,2.09-14.42l6.17,2.3c7.61,3.23,8.98,7.18,9.7,8.06l8.96,17.1Z" fill="#df8225"/><path d="M320.5,75.25s2.37,8.85,15.87-3.02c0,0,5.19,1.87,11.9,5.65,6.72,3.78-3.75,21.4-3.75,21.4h-30.69l-1.27-11.77,7.94-12.25Z" fill="#df8225"/><path d="M320.44,73.41s.07,2.54,2.01,2.87c1.94,.33-1.36-3.27-1.36-3.27l-.65,.4Z" fill="#d59d7a"/><path d="M341.92,99.27l-1.17-4.33-.1,4.34h1.28Z" fill="#c07f2a"/><path d="M335.8,71.43s.33,.87-1.16,2.42c-1.49,1.55,1.95-1.84,1.95-1.84l-.79-.58Z" fill="#df8225"/><path d="M320.44,73.41s.24,5.22,5.59,4.55c4.54-.57,9.71-5.21,9.73-5.89,.02-.76-.7-1.59-.7-1.59,0,0,1.57,1.51,.55,2.66-1.02,1.15-6.71,6.67-10.49,6.07-.63-.06-1.26-.17-1.88-.3-2.18-.65-2.53-2.26-2.8-5.49Z" fill="#c07f2a"/><path d="M313.63,96.74s-.47-5.19-.37-7.37c.11-2.18-1.9,6.29-1.63,8.58l2.06-.95-.06-.26Z" fill="#c07f2a"/></g><path d="M261.53,45.23c.88-.51,1.92-.65,2.9-.39l2.17,.57,6.47,1.71c2.04,.54,3.26,2.63,2.73,4.67l-4.37,16.64c-.54,2.04-2.63,3.26-4.67,2.72l-6.47-1.71-2.17-.57c-.98-.26-2.02-.12-2.9,.39l-6.6,3.85c-.88,.51-1.92,.65-2.9,.39l-11.73-3.1c-.98-.26-1.82-.9-2.33-1.77l-3.85-6.61c-.51-.88-1.35-1.51-2.33-1.77l-2.17-.57-7.39-1.95c-2.04-.54-3.26-2.63-2.73-4.67l4.37-16.64c.54-2.04,2.63-3.26,4.67-2.72l7.39,1.95,2.17,.57c.98,.26,1.82,.9,2.33,1.77l3.85,6.61c.51,.88,1.35,1.52,2.33,1.77l11.73,3.1c.98,.26,2.02,.12,2.9-.39l6.6-3.85Z" fill="#f9a11b" fill-rule="evenodd"/><path d="M155.19,3.5h-27.91c-5.58,0-10.13,5.29-10.13,11.8s4.55,11.8,10.13,11.8h12.92v.06c5.52,9.55,13.77,10.28,12.98,5.96-.55-2.98-.97-4.32-.55-5.96h2.49c5.58,0,10.13-5.29,10.13-11.8,.06-6.57-4.43-11.86-10.07-11.86Z" fill="#bfccdc" fill-rule="evenodd"/></g></g></g></svg>