<svg id="Layer_1" data-name="Layer 1" xmlns="http://www.w3.org/2000/svg" viewBox="0 0 283.46 283.46"><defs><style>.cls-1{fill:#fff;}.cls-2{fill:#f3c851;}.cls-3{fill:#84cbcc;}.cls-4{fill:#1864ab;}</style></defs><title>ML Logo</title><polygon class="cls-1" points="55.69 195.03 55.69 100.36 137.71 147.5 137.71 242.16 55.69 195.03"/><path class="cls-2" d="M59.69,107.27l74,42.54v85.44l-74-42.54V107.27m-8-13.82V197.34l90,51.73V145.18l-90-51.73Z"/><polygon class="cls-1" points="145.71 147.49 227.78 100.07 227.78 194.72 145.71 242.14 145.71 147.49"/><path class="cls-3" d="M223.78,107v85.41l-74.07,42.8V149.8L223.78,107m8-13.86-90.07,52V249.07l90.07-52V93.14Z"/><polygon class="cls-2" points="64.09 121.29 64.09 129 70.59 132.74 70.59 179.13 64.09 175.39 64.09 183.1 83.1 194.03 83.1 186.31 77.2 182.92 77.2 136.54 95.47 201.79 97.07 202.71 115.48 158.53 115.48 204.92 109.15 201.29 109.15 209 129.31 220.58 129.31 212.87 122.84 209.15 122.84 162.76 129.31 166.48 129.31 158.77 110.75 148.1 96.57 182.28 82.46 131.85 64.09 121.29 64.09 121.29"/><polygon class="cls-3" points="189.02 138.89 167.11 151.54 167.11 159.25 174.01 155.27 174.01 201.66 167.11 205.64 167.11 213.35 206.37 190.67 206.37 163.81 199.72 167.65 199.72 186.8 182.12 196.97 182.12 150.58 189.02 146.6 189.02 138.89 189.02 138.89"/><polygon class="cls-1" points="59.74 93.24 141.71 45.91 223.68 93.24 141.71 140.56 59.74 93.24"/><path class="cls-4" d="M141.71,50.53l74,42.71-74,42.71-74-42.71,74-42.71m0-9.24-90,52,90,51.94,90-51.94-90-51.95Z"/><path class="cls-4" d="M140.81,118.94A13.12,13.12,0,0,0,151,114.75l.48,0c.55.07,1.11.13,1.67.18s1.11.08,1.69.08c5,0,11.1-2,12.17-5.2.52-1.59,1.83-2.4,4.82-3a15.25,15.25,0,0,0,2.14-.64l.65-.23c5.78-2,9.55-5,10.62-8.64.76-2.56.11-5.24-1.87-7.74a1.26,1.26,0,0,1-.08-1.34,5.3,5.3,0,0,0-.43-5.31c-2.19-3.7-7.38-6.6-12.26-6.89-.33-2.63-3.55-4-6.67-5.35l-.36-.15a27,27,0,0,0-10.78-2.42,21.46,21.46,0,0,0-2.66.16,15.3,15.3,0,0,1-1.81.11,31.11,31.11,0,0,1-5-.54,30.77,30.77,0,0,0-5.17-.56,15.9,15.9,0,0,0-1.71.09c-9.26,1-15.59,3.88-19.35,8.81-.69.91-1.44,1.44-3.49,1.7-5,.65-8.22,2.64-9,5.61a10.83,10.83,0,0,0-.07,3.59c0,.39.07.79.1,1.2-4.37,1.73-6.4,3.27-6.75,5.12-.32,1.62.66,3.39,3.17,5.74a.49.49,0,0,1,.1.51,5.43,5.43,0,0,0,.29,5.1c1.61,2.66,5.62,4.46,11,5,1.24,4.13,6.31,6.68,13.37,6.68a29.71,29.71,0,0,0,3.35-.19h.3a5.81,5.81,0,0,1,2.29.53A20.54,20.54,0,0,0,140.81,118.94Zm-10.77-6a16.68,16.68,0,0,0-3.57.44,4.73,4.73,0,0,1-1.06.11c-3,0-7.2-1.89-7.74-3.11a1.65,1.65,0,0,1,.61-1.85,52.88,52.88,0,0,1,5.14-3.06l2-1.13,1.15.64c1.15.63,2.23,1.23,3.18,1.88.21.14.3.46.26.93a3.1,3.1,0,0,0,.86,2.37,7.11,7.11,0,0,0,5.22,1.8c3.46,0,6.12-1.58,6.17-3.67a2.75,2.75,0,0,0-.85-2,7.43,7.43,0,0,0-5.21-1.73l-.61,0h-.48a6.56,6.56,0,0,1-4.19-1.47,17.53,17.53,0,0,0-1.5-.92l26.67-15.2,2,1.15c2.62,1.48,5.33,3,7.9,4.51a1.66,1.66,0,0,1,0,.48l0,.2a2.94,2.94,0,0,0,.76,2.33,7,7,0,0,0,5.16,1.9h.16a7.61,7.61,0,0,0,5.37-1.87,2.67,2.67,0,0,0,.8-2c-.11-2.13-2.8-3.61-6.52-3.61h-.9a4,4,0,0,1-1.7-.21c-2.5-1.34-4.95-2.73-7.53-4.21l-1.83-1,2.08-1.08c2.43-1.25,4.72-2.44,7.12-3.6a4.82,4.82,0,0,1,2.07-.47,5.35,5.35,0,0,1,2.7.77c2.45,1.49,5,3.27,5.33,5.23a3.67,3.67,0,0,1-1.08,3c-.49.59-.14,1.51.48,2.06a5.88,5.88,0,0,1,2.22,5.57c-.53,2.74-3.16,5.2-7,6.58a58.23,58.23,0,0,1-7.78,2.18c-1.78.38-2.81.91-2.87,2.49-.09,2.38-3.7,4.39-7.89,4.39h0l4-2.27a.57.57,0,0,0,0-1L148,102.14l.07,0a7.17,7.17,0,0,1,4.64-1.68,10,10,0,0,1,1.06,0l.71,0c2.71,0,5-1.56,5.16-3.49a2.75,2.75,0,0,0-.74-2,6.94,6.94,0,0,0-4.8-1.92l-.59,0c-2,0-4.47.55-5.46,1.76a1.69,1.69,0,0,0-.38,1.44c.32,1.54-1,2.41-3.3,3.65l-1,.53c-.45.25-.87.52-1.34.83l-.72.46a.57.57,0,0,0-.27.49.59.59,0,0,0,.29.48l11.08,6.3-.32.17a23.16,23.16,0,0,0-2.35,1.4,16.47,16.47,0,0,0-3.23,2.73,6.83,6.83,0,0,1-5.56,2.4,13.89,13.89,0,0,1-3.61-.53l-.4-.11a4.59,4.59,0,0,1-1.14-.38A10.06,10.06,0,0,0,130,112.91Zm5.12-4.88a4.55,4.55,0,0,1,1-.1,3.69,3.69,0,0,1,1.12.14c0,.1,0,.3,0,.46v.16l-.63-.06a7.56,7.56,0,0,1-1.52-.21A.66.66,0,0,1,135.16,108ZM116.78,80.8a6.83,6.83,0,0,1,4.81,1.68,1.49,1.49,0,0,1,.48,1.16,2.79,2.79,0,0,0,.77,2.16A7.13,7.13,0,0,0,128,87.69h.16a7.5,7.5,0,0,0,5.28-1.78,2.81,2.81,0,0,0,.87-2c0-2.1-2.67-3.63-6.24-3.63h-.36a15.35,15.35,0,0,1-6.45-2.37l.12-.19c2-3.69,10.19-7,17.08-7,.32,0,.63,0,.94,0a17.52,17.52,0,0,1,3.51.63,19.54,19.54,0,0,0,3.55.67l.85,0c1,0,2-.1,3-.19a27.64,27.64,0,0,1,2.85-.19c.25,0,.51,0,.76,0A25.07,25.07,0,0,1,164.54,75c.74.42,1.19.88,1.2,1.25s-.42.64-.67.8c-3.77,2.25-7.75,4.5-11.59,6.67l-4.28,2.43-2.55-1.45,5.77-3.29a.56.56,0,0,0,0-1l-1-.58c-.69-.39-1.31-.75-2-1.14-1.62-.87-2.25-1.32-2-2.25a1.88,1.88,0,0,0-.35-1.73c-.91-1.22-3.21-2.07-5.6-2.07h-.18a7.45,7.45,0,0,0-5.15,1.9,2.68,2.68,0,0,0-.79,2c.11,2,2.64,3.55,5.62,3.55l.74,0c.28,0,.55,0,.81,0a4.93,4.93,0,0,1,3,.91l-5.6,3.19a.57.57,0,0,0,0,1l5.74,3.26-9.58,5.46-9-5.11a.72.72,0,0,0-.28-.07.64.64,0,0,0-.28.07l-2,1.15c-1.61.93-3.13,1.82-4.76,2.64a7.11,7.11,0,0,1-2.83.57h-.26c-3.89,0-6.51,1.41-6.66,3.59a2.69,2.69,0,0,0,.79,2,7.51,7.51,0,0,0,5.42,1.85h0a7.08,7.08,0,0,0,5.06-1.8,3.2,3.2,0,0,0,1-2.37,1.92,1.92,0,0,1,.87-1.3,22.11,22.11,0,0,1,2.59-1.55l1.14-.62,1.23.69c1.44.81,2.79,1.56,4.07,2.38a.55.55,0,0,1-.19.29c-4.92,2.87-10.65,6.19-16.46,9.39a6.65,6.65,0,0,1-6.91-.16c-1.5-.92-3.25-2.14-3.4-3.46a2.71,2.71,0,0,1,1.05-2.17c.72-.7-.26-1.74-.62-2.13a12.58,12.58,0,0,0-1.09-1,5.87,5.87,0,0,1-1.28-1.25,2.16,2.16,0,0,1-.36-2c.43-1,2-1.86,4.37-2.37.79-.17,1.61-.31,2.3-.43l.8-.13a.57.57,0,0,0,.39-.28.53.53,0,0,0,0-.49c-.2-.52-.45-1-.7-1.55a9.69,9.69,0,0,1-1.1-3.14,2.35,2.35,0,0,1,.63-1.78c1.14-1.35,3.64-2.31,6.52-2.51C116.38,80.8,116.58,80.8,116.78,80.8ZM115.21,97c0-.1.05-.25.07-.36l0-.05.41,0h.68a3.75,3.75,0,0,1,.88.08c0,.11,0,.3,0,.46v.14l-.64,0A6.39,6.39,0,0,1,115.21,97Zm37.48.07a2,2,0,0,1,.08-.47v0h.92a2,2,0,0,1,.75.08,1.85,1.85,0,0,1,.09.48v0h-.67C153.45,97.16,152.92,97.15,152.69,97.11ZM172.2,94h-1v-.06a2.09,2.09,0,0,1-.08-.34,6.66,6.66,0,0,1,1.46-.21l.63-.06v.14c0,.15,0,.34,0,.45A4.09,4.09,0,0,1,172.2,94ZM127.14,83.84a4.51,4.51,0,0,1,1.2-.15,4.34,4.34,0,0,1,.89.08,1.56,1.56,0,0,1,.11.5l0,.09-.58,0a6.47,6.47,0,0,1-1.6-.14A.68.68,0,0,1,127.14,83.84ZM141,76.11c.26,0,.57,0,.87,0l.35,0a1.38,1.38,0,0,1,0,.53,7.16,7.16,0,0,1-1.31.1h-.63c.11-.43.17-.6.3-.67A1.07,1.07,0,0,1,141,76.11Z"/><path class="cls-4" d="M150.76,114.16c-4.42,5.4-12.9,5-18.67,2.14a6.17,6.17,0,0,0-2.91-.57c-8.43.92-15.09-1.69-16.21-6.46-8.59-.72-13.23-4.59-11.25-9.34a1.06,1.06,0,0,0-.23-1.15c-5-4.62-4-7.06,3.77-10.06-.05-1.76-.45-3.43-.06-5,.69-2.76,3.76-4.58,8.49-5.18,2.18-.28,3.07-.88,3.86-1.92,3.63-4.77,9.83-7.62,19-8.6,4.84-.52,8.81,1.5,13.69.9a25.31,25.31,0,0,1,13.15,2.22c3.27,1.4,6.79,2.81,6.71,5.52,7.52.16,15.16,6.79,12.73,11.4a1.83,1.83,0,0,0,.13,2c4.66,5.88,1.24,12.21-8.48,15.49a21.53,21.53,0,0,1-2.72.85c-2.89.57-4.6,1.39-5.25,3.36-1,3.06-7.88,5.26-13.27,4.74ZM145.5,84.7l3.7,2.1c5.47-3.12,10.93-6.13,16.16-9.27,1.53-.92,1.11-2.1-.55-3a25.39,25.39,0,0,0-10.91-3.45c-2.42-.15-5,.5-7.42.34s-4.66-1.19-7.07-1.3c-7.46-.33-16.3,3.27-18.54,7.31-.11.2-.28.42-.21.6.37.94,5.26,2.86,7.1,2.81,3.33-.08,5.94,1.26,6,3.07s-2.51,3.28-5.73,3.23-5.54-1.56-5.36-3.42-3.06-3.69-6.5-3.45c-4.47.31-7.92,2.35-7.68,4.92.16,1.61,1.19,3.2,1.85,4.84-.81.14-2,.32-3.12.56-4.28.93-5.92,2.81-4.37,5.27a20,20,0,0,0,2.43,2.31c.39.41.93,1,.64,1.34-2.68,2.64-.6,4.65,2.46,6.52a7.23,7.23,0,0,0,7.48.17c5.58-3.08,11-6.24,16.47-9.4.42-.24.64-1,.34-1.18-1.79-1.14-3.75-2.19-5.74-3.32a44.67,44.67,0,0,0-4.07,2.36,2.44,2.44,0,0,0-1.09,1.78c.06,2-2.22,3.56-5.46,3.58s-5.77-1.46-5.64-3.28,2.71-3.12,6.33-3.06a7.55,7.55,0,0,0,3.1-.64c2.31-1.16,4.41-2.45,6.77-3.79l9.26,5.26,10.73-6.11-6.61-3.75L146.57,81a5.94,5.94,0,0,0-4.93-1.5c-3.07.25-5.64-1.25-5.74-3s2.35-3.22,5.38-3.28,6.08,1.4,5.58,3.07c-.44,1.48.85,2.15,2.33,3,.93.5,1.82,1,2.94,1.66Zm7.7,27.43c5.2.74,10.28-1.63,10.39-4.79,0-1.1.6-1.58,2.43-2a62.23,62.23,0,0,0,7.85-2.2c7.49-2.68,9.76-8.91,5-13.12-.39-.34-.69-.94-.43-1.26,3.16-3.77-.14-6.49-4.39-9.06a5.52,5.52,0,0,0-5.31-.33c-3.41,1.65-6.68,3.39-10.15,5.17,3.69,2.09,6.92,4,10.29,5.77a6.35,6.35,0,0,0,2.5.27c3.53-.1,6.22,1.19,6.33,3.07s-2.58,3.3-5.76,3.25-5.6-1.61-5.37-3.6c.05-.4.2-1-.18-1.19-3.37-2-6.85-3.92-10.26-5.86l-27.95,15.93c2.74.91,3.52,3.07,7.48,2.86,3.49-.18,6.12,1.27,6.08,3.16s-2.51,3.15-5.68,3.13c-3.33,0-5.6-1.54-5.44-3.56a1.54,1.54,0,0,0-.51-1.45c-1.37-.94-3-1.75-4.65-2.7-2.67,1.52-5.33,2.84-7.51,4.37a2.21,2.21,0,0,0-.8,2.54c.77,1.77,6.55,4,9.45,3.34,3.87-.88,6.43-.39,8.91,1.24a6.65,6.65,0,0,0,1.7.56c4.35,1.19,7.7.43,9.76-2a16.58,16.58,0,0,1,3.12-2.63c1-.7,2.19-1.28,3.49-2l-12-6.79c.8-.5,1.39-.91,2-1.28,2.33-1.34,5-2.4,4.52-4.79-.32-1.55,2.9-2.65,5.85-2.5s5.13,1.62,5,3.33-2.41,3.21-5.25,2.94c-3.66-.35-4.93,1-6.9,2.27l11.89,6.76Zm-13.68-34.7c1.47-.1,2.74,0,3-.26s.17-1,.21-1.54a7.81,7.81,0,0,0-2.45,0C139.78,76,139.84,76.61,139.52,77.43Zm34.36,15.23a11.89,11.89,0,0,0-3.11.47c-.42.25,0,.92,0,1.41a10,10,0,0,0,2.7-.15C173.93,94.21,173.72,93.5,173.88,92.66ZM130.07,85c-.25-.8-.13-1.54-.61-1.69a5.1,5.1,0,0,0-2.63.07c-.37.14-.36,1.13.07,1.34A12.94,12.94,0,0,0,130.07,85ZM118,97.92c-.16-.84,0-1.57-.41-1.74a10.22,10.22,0,0,0-2.72-.12c0,.49-.4,1.17,0,1.43A12.28,12.28,0,0,0,118,97.92Zm20,11.41c-.13-.84.1-1.57-.36-1.76a4.94,4.94,0,0,0-2.62-.06c-.39.11-.53,1.1-.12,1.34A11.92,11.92,0,0,0,137.9,109.33ZM155.22,97.8c-.2-.77,0-1.41-.51-1.65a8.42,8.42,0,0,0-2.4-.12c0,.52-.39,1.13,0,1.52S153.84,97.7,155.22,97.8Z"/></svg>