<svg xmlns="http://www.w3.org/2000/svg" id="Layer_1" data-name="Layer 1" viewBox="0 0 283.46 283.46"><defs><style>.cls-1{fill:#84cbcc}.cls-2{fill:#f3c851}.cls-3{fill:#1864ab}.cls-4,.cls-5{fill:#fff}.cls-4{stroke:#fff;stroke-miterlimit:10}</style></defs><title>ML Logo</title><rect width="98.21" height="98.21" x="140.3" y="132.91" class="cls-1"/><rect width="98.21" height="98.21" x="42.09" y="132.91" class="cls-2"/><rect width="98.21" height="98.21" x="91.19" y="34.7" class="cls-3"/><path d="M105.87,153.75h19.38v7h-6.76v42h6.76v7h-21v-7h6.61v-42L91.58,210.28H89.91L70.84,160.73v42H77v7H57.14v-7h6.79v-42H57.14v-7H76.33l14.73,38.31Z" class="cls-4"/><path d="M184.53,160.8v42.43H203.1V185.71h7v24.57H168.7v-7.05H176V160.8H168.7v-7.05h23.11v7.05Z" class="cls-4"/><path d="M134.93,120.15c-4,0-7.59-2.21-9.94-6.07a1,1,0,0,0-.4-.37c-7.83-1.92-10.26-5.38-9-13.1-.37-.35-.75-.69-1.12-1A26.24,26.24,0,0,1,111,96a9.91,9.91,0,0,1-.43-11.64,2.64,2.64,0,0,0,.16-2.87,21.48,21.48,0,0,1,2.3-20.8,12.59,12.59,0,0,1,4.73-3.82,9.75,9.75,0,0,0,3.85-3.06c2.08-3.28,5.54-5.21,10.59-5.91l.35-.05a26.79,26.79,0,0,1,3.72-.34,8.37,8.37,0,0,1,5.42,1.7,11.22,11.22,0,0,1,6.18-1.65c4.65,0,10.81,2.21,13.36,7.06a2.94,2.94,0,0,0,1.26,1.24,18.3,18.3,0,0,1,11.29,22c0,.18-.09.38-.14.57a9.09,9.09,0,0,1-.65,2.09c-1,2-.91,3.21.25,4.94,3,4.47.73,11.43-3.13,14.21l-.78.55c1.21,4.25.18,7.16-1,8.9a11.32,11.32,0,0,1-9,4.7,2,2,0,0,0-1.1.46c-2.48,3.72-6.11,5.85-10,5.85a12,12,0,0,1-6.64-2.12A12.42,12.42,0,0,1,134.93,120.15Zm9.64-14a47.23,47.23,0,0,0,.12,5.87,3.32,3.32,0,0,0,1.37,1.93,4,4,0,0,0,1.87.37c2.2,0,4.3-.95,4.65-1.76,1.36-3.22,3.5-4.72,6.74-4.72l.87,0a4,4,0,0,0,.58-.2l.34-.13c2.8-1,3.62-2.84,2.59-5.78a21.29,21.29,0,0,1-.91-4.73,20.78,20.78,0,0,1-.06-2.74H150.82A1.43,1.43,0,0,1,149.4,93l-.05-.87c0-.59-.06-1.11-.06-1.64,0-.36,0-.73,0-1.1,0-2.41,0-3.84-1.66-5.17A4.07,4.07,0,0,1,146.15,81a6.4,6.4,0,0,1,2.29-4.8,5.64,5.64,0,0,1,3.67-1.34,5.89,5.89,0,0,1,4.37,2,6.18,6.18,0,0,1,1.59,4.71,4.59,4.59,0,0,1-1.87,3.32c-1.27.92-1.31,1.81-1.15,3.64h12a1.42,1.42,0,0,1,1.42,1.42v2.37a4.83,4.83,0,0,0,.21-.93,5.84,5.84,0,0,0-1.54-4.81,3.93,3.93,0,0,1-.82-4.89,33.92,33.92,0,0,0,2.15-6.4,12,12,0,0,0-1.72-9,12.81,12.81,0,0,0-2.8-3.14,5.94,5.94,0,0,1,1.51,4,6,6,0,0,1-1.82,4.32A5.68,5.68,0,0,1,159.69,73,6.22,6.22,0,0,1,155,70.74l-.18-.21a4.13,4.13,0,0,0-.34-.39c-2.16,0-4.3-.06-6-.06h-3.83V99c.46,0,.92,0,1.37.08s.77.07,1.15.07a2.21,2.21,0,0,0,2-.86,5.8,5.8,0,0,1,4.48-2.21,5.72,5.72,0,0,1,4.15,1.83,5.93,5.93,0,0,1-.14,8.33,5.62,5.62,0,0,1-4,1.69,6.23,6.23,0,0,1-4.62-2.21,2.45,2.45,0,0,0-.83-.7c-.55-.05-1.22-.07-2.05-.07h-1.63C144.58,105.37,144.57,105.78,144.57,106.18ZM118.51,85.1A3.18,3.18,0,0,0,116,86.27a5.44,5.44,0,0,0,.38,7.41,21.24,21.24,0,0,0,3.69,2.49c.65.38,1.3.76,1.94,1.17a1.41,1.41,0,0,1,.49,1.84l-.32.61c-.27.5-.58,1.07-.84,1.65-1.19,2.7-.49,4.69,2.07,5.92a7.06,7.06,0,0,0,1.79.47,14.92,14.92,0,0,1,1.65.37c1.14.35,2.35.86,2.64,2,.74,2.82,2.5,3.92,6.48,4.06h.19c1.83,0,2.66-.83,2.69-2.7.11-6.41.06-13,0-18.63l-.06-.1c-.77,0-1.62-.06-2.69-.06h-1.91V93a19.13,19.13,0,0,0,.06,2.88,3,3,0,0,0,.72,1.57c2.6,2.54,2.82,6.28.5,8.69A5.75,5.75,0,0,1,127,106c-2.3-2.53-2.06-6.08.6-8.65a2.56,2.56,0,0,0,.69-1.46c.1-1.72.08-3.46.06-5.31,0-.74,0-1.5,0-2.27a1.42,1.42,0,0,1,1.41-1.42h9V77.49h-6a1.43,1.43,0,0,1-1.42-1.42v-6h-.09a1.74,1.74,0,0,0-1.61.89,5.16,5.16,0,0,1-4.22,2.1A6,6,0,0,1,121,63a6.12,6.12,0,0,1,4.41-1.91,4.74,4.74,0,0,1,4,2,2.3,2.3,0,0,0,2.35,1.06h.6l1.29,0h2.13a1.42,1.42,0,0,1,1.41,1.42v6.17h1.31c0-1.26,0-2.52,0-3.77,0-4.38,0-8.9-.08-13.32,0-1.12-1-1.36-1.81-1.36-2.71,0-6.1.33-8.7,2.44a9.24,9.24,0,0,0-1.64,2,11.74,11.74,0,0,1-2.21,2.59,10.64,10.64,0,0,1-3,1.53A8,8,0,0,0,118.84,63c-4,3.46-5.37,11.35-2.86,16.24l.09.19a5.71,5.71,0,0,0,.58,0,9.22,9.22,0,0,0,4.27-1,5.94,5.94,0,0,1,4.43-2,5.66,5.66,0,0,1,4,1.67,6,6,0,0,1,1.79,4.31,5.89,5.89,0,0,1-1.84,4.24,5.65,5.65,0,0,1-4,1.61,6.05,6.05,0,0,1-4.49-2.07A3.07,3.07,0,0,0,118.51,85.1Zm30.35-20.95c1.49,0,3.45,0,5.44-.07a3.38,3.38,0,0,0,.75-.68,6.24,6.24,0,0,1,4.66-2.22,5.63,5.63,0,0,1,1,.09,10.89,10.89,0,0,0-1.27-.37A3.54,3.54,0,0,1,156.93,59c-1.56-4.51-4.88-5.49-10.08-5.67h-.14c-1.4,0-1.65.71-1.71,1.4-.2,2.51-.32,5-.44,7.61l-.09,1.85Z" class="cls-5"/><circle cx="125.18" cy="67.25" r="1.63" class="cls-3"/><circle cx="159.86" cy="67.25" r="1.63" class="cls-3"/><circle cx="152.59" cy="80.48" r="1.63" class="cls-3"/><circle cx="125.18" cy="82.1" r="1.63" class="cls-3"/><circle cx="131.34" cy="102.05" r="1.63" class="cls-3"/><circle cx="153.76" cy="102.05" r="1.63" class="cls-3"/></svg>