<svg xmlns="http://www.w3.org/2000/svg" id="Layer_1" data-name="Layer 1" viewBox="0 0 283.46 283.46"><defs><style>.cls-1{fill:#84cbcc}.cls-2{fill:#f3c851}.cls-3{fill:#1864ab}.cls-4{fill:#fff}</style></defs><title>ML Logo</title><path d="M231.49,152.4v82.22H149.28V152.4h82.21m8-8H141.28v98.22h98.21V144.4Z" class="cls-1"/><path d="M133.28,152.4v82.22H51.07V152.4h82.21m8-8H43.07v98.22h98.21V144.4Z" class="cls-2"/><path d="M182.39,54.19V136.4H100.18V54.19h82.21m8-8H92.18V144.4h98.21V46.19Z" class="cls-3"/><polygon points="126.23 165.25 106.86 165.25 92.05 203.55 77.31 165.25 58.12 165.25 58.12 172.22 64.91 172.22 64.91 214.2 58.12 214.2 58.12 221.18 77.98 221.18 77.98 214.2 71.82 214.2 71.82 172.22 90.89 221.77 92.57 221.77 111.79 172.22 111.79 214.2 105.19 214.2 105.19 221.18 126.23 221.18 126.23 214.2 119.47 214.2 119.47 172.22 126.23 172.22 126.23 165.25 126.23 165.25" class="cls-2"/><polygon points="192.79 165.25 169.68 165.25 169.68 172.3 176.96 172.3 176.96 214.72 169.68 214.72 169.68 221.77 211.09 221.77 211.09 197.21 204.08 197.21 204.08 214.72 185.51 214.72 185.51 172.3 192.79 172.3 192.79 165.25 192.79 165.25" class="cls-1"/><path d="M134.48,131.64c-4,0-7.59-2.21-9.94-6.06a1.07,1.07,0,0,0-.4-.38c-7.83-1.91-10.26-5.38-9-13.09l-1.12-1a26.24,26.24,0,0,1-3.5-3.64,9.91,9.91,0,0,1-.43-11.64,2.65,2.65,0,0,0,.16-2.87,21.46,21.46,0,0,1,2.3-20.79,12.52,12.52,0,0,1,4.73-3.83,9.73,9.73,0,0,0,3.85-3c2.08-3.28,5.54-5.22,10.59-5.91l.35-.05A26.79,26.79,0,0,1,135.8,59a8.42,8.42,0,0,1,5.42,1.7A11.22,11.22,0,0,1,147.4,59c4.65,0,10.81,2.2,13.36,7.06A3,3,0,0,0,162,67.3a18.3,18.3,0,0,1,11.29,22c-.05.19-.09.38-.14.57a9.28,9.28,0,0,1-.65,2.09c-1,2-.91,3.21.25,4.95,3,4.46.73,11.42-3.13,14.21l-.78.55c1.21,4.24.18,7.16-1,8.9a11.31,11.31,0,0,1-8.95,4.69,2,2,0,0,0-1.1.46c-2.48,3.72-6.11,5.86-10,5.86a12,12,0,0,1-6.64-2.13A12.34,12.34,0,0,1,134.48,131.64Zm9.64-14a47.43,47.43,0,0,0,.12,5.88,3.3,3.3,0,0,0,1.37,1.92,3.83,3.83,0,0,0,1.87.37c2.2,0,4.3-.94,4.65-1.76,1.36-3.22,3.5-4.72,6.74-4.72l.87,0a3.76,3.76,0,0,0,.58-.19l.34-.13c2.8-1,3.62-2.85,2.59-5.79a21.2,21.2,0,0,1-.91-4.72,21,21,0,0,1-.06-2.75H150.37a1.42,1.42,0,0,1-1.42-1.35l0-.87c0-.58-.06-1.11-.06-1.63,0-.37,0-.74,0-1.1.05-2.41,0-3.85-1.66-5.17a4.09,4.09,0,0,1-1.49-3.23,6.4,6.4,0,0,1,2.29-4.8,5.7,5.7,0,0,1,3.67-1.34,5.92,5.92,0,0,1,4.37,2A6.19,6.19,0,0,1,157.62,93a4.62,4.62,0,0,1-1.87,3.31c-1.27.93-1.31,1.82-1.15,3.65h12a1.41,1.41,0,0,1,1.42,1.41v2.37a4.83,4.83,0,0,0,.21-.93A5.84,5.84,0,0,0,166.66,98a3.93,3.93,0,0,1-.82-4.89,33.92,33.92,0,0,0,2.15-6.4,12,12,0,0,0-1.72-9,12.81,12.81,0,0,0-2.8-3.14,6,6,0,0,1,1.51,4,6.07,6.07,0,0,1-1.82,4.33,5.68,5.68,0,0,1-3.93,1.61,6.22,6.22,0,0,1-4.67-2.27l-.18-.21c-.09-.11-.23-.28-.34-.39-2.16,0-4.3,0-5.95,0h-3.83v28.91c.46,0,.92,0,1.37.07a11.26,11.26,0,0,0,1.15.07,2.21,2.21,0,0,0,2-.86,5.83,5.83,0,0,1,4.48-2.21,5.72,5.72,0,0,1,4.15,1.83,5.93,5.93,0,0,1-.14,8.33,5.62,5.62,0,0,1-4,1.69,6.22,6.22,0,0,1-4.62-2.2,2.45,2.45,0,0,0-.83-.7c-.55-.05-1.22-.08-2-.08l-1.44,0h-.19C144.13,116.86,144.12,117.27,144.12,117.67ZM118.06,96.59a3.16,3.16,0,0,0-2.52,1.18,5.43,5.43,0,0,0,.38,7.4,20.69,20.69,0,0,0,3.69,2.49c.65.38,1.3.76,1.94,1.17a1.41,1.41,0,0,1,.49,1.84c-.09.19-.2.39-.32.61-.27.5-.58,1.08-.84,1.66-1.19,2.69-.49,4.68,2.07,5.92a7.51,7.51,0,0,0,1.79.47,11.43,11.43,0,0,1,1.65.37c1.14.35,2.35.85,2.64,2,.74,2.82,2.5,3.93,6.47,4.06h.2c1.83,0,2.66-.84,2.69-2.7.11-6.42.06-13,0-18.64l-.06-.1c-.77,0-1.62-.05-2.69-.05h-1.91v.21a19.13,19.13,0,0,0,.06,2.88,3,3,0,0,0,.72,1.58c2.6,2.54,2.82,6.27.5,8.68a5.76,5.76,0,0,1-8.47-.09c-2.3-2.54-2.06-6.09.6-8.65a2.61,2.61,0,0,0,.69-1.47c.1-1.72.08-3.46.06-5.3,0-.75,0-1.5,0-2.28a1.41,1.41,0,0,1,1.41-1.41h9V89h-6a1.42,1.42,0,0,1-1.42-1.42v-6h-.09a1.76,1.76,0,0,0-1.61.89,5.13,5.13,0,0,1-4.22,2.1,6,6,0,0,1-4.37-10A6.08,6.08,0,0,1,125,72.62a4.74,4.74,0,0,1,4,2,2.31,2.31,0,0,0,2.35,1h4A1.41,1.41,0,0,1,136.72,77v6.17H138c0-1.26,0-2.52,0-3.77,0-4.37,0-8.9-.08-13.32,0-1.12-1-1.36-1.81-1.36-2.71,0-6.1.34-8.7,2.44a9.07,9.07,0,0,0-1.64,2,11.74,11.74,0,0,1-2.21,2.59,10.89,10.89,0,0,1-3,1.52,8.3,8.3,0,0,0-2.27,1.16c-4,3.46-5.37,11.35-2.86,16.24l.09.19a5.71,5.71,0,0,0,.58,0,9.09,9.09,0,0,0,4.27-1,5.94,5.94,0,0,1,4.43-2,5.67,5.67,0,0,1,4,1.68,6,6,0,0,1,1.79,4.3,5.89,5.89,0,0,1-1.84,4.24,5.65,5.65,0,0,1-3.95,1.61,6,6,0,0,1-4.49-2.07A3.11,3.11,0,0,0,118.06,96.59Zm30.35-21c1.49,0,3.45,0,5.44-.06a4,4,0,0,0,.75-.69,6.24,6.24,0,0,1,4.66-2.22,5.65,5.65,0,0,1,1,.1A9.24,9.24,0,0,0,159,72.4a3.59,3.59,0,0,1-2.51-2c-1.56-4.51-4.88-5.5-10.08-5.67h-.14c-1.4,0-1.65.7-1.71,1.39-.2,2.51-.32,5-.44,7.62L144,75.63Z" class="cls-3"/><circle cx="124.73" cy="78.74" r="1.63" class="cls-4"/><circle cx="159.41" cy="78.74" r="1.63" class="cls-4"/><circle cx="152.14" cy="91.97" r="1.63" class="cls-4"/><circle cx="124.73" cy="93.6" r="1.63" class="cls-4"/><circle cx="130.89" cy="113.54" r="1.63" class="cls-4"/><circle cx="153.31" cy="113.54" r="1.63" class="cls-4"/></svg>